/* XPM */
static char *col_ombra[] = {
/* columns rows colors chars-per-pixel */
"64 64 99 2 ",
"   c #311512",
".  c #371812",
"X  c #3D2215",
"o  c #3E2814",
"O  c #3E2118",
"+  c #442D16",
"@  c #492D1F",
"#  c #4C3D16",
"$  c #4F3121",
"%  c #513625",
"&  c #523B2C",
"*  c #5A3F2F",
"=  c #553F34",
"-  c #554A17",
";  c #5F5C15",
":  c #5B5418",
">  c #675B1E",
",  c #616216",
"<  c #646A17",
"1  c #6B661A",
"2  c #6E6B1B",
"3  c #706F1D",
"4  c #72751B",
"5  c #5C4635",
"6  c #5E4B36",
"7  c #5A463A",
"8  c #5D4B3C",
"9  c #604A2E",
"0  c #695F20",
"q  c #614E34",
"w  c #614F3E",
"e  c #635137",
"r  c #685837",
"t  c #6D573D",
"y  c #6F593D",
"u  c #6F6A21",
"i  c #6E642A",
"p  c #706A21",
"a  c #72672F",
"s  c #71692D",
"d  c #787B21",
"f  c #7A7429",
"g  c #766C31",
"h  c #5E4D41",
"j  c #5F5145",
"k  c #5F554B",
"l  c #614F42",
"z  c #625244",
"x  c #695647",
"c  c #6B5A46",
"v  c #62554A",
"b  c #68574A",
"n  c #65594D",
"m  c #6B5C4C",
"M  c #655C53",
"N  c #6B5E52",
"B  c #6E6041",
"V  c #72604C",
"C  c #6E6153",
"Z  c #676159",
"A  c #6B645C",
"S  c #6F685F",
"D  c #726454",
"F  c #776857",
"G  c #786C53",
"H  c #746759",
"J  c #73695D",
"K  c #796C5C",
"L  c #7C705B",
"P  c #6B6760",
"I  c #6E6962",
"U  c #726C62",
"Y  c #7B6F60",
"T  c #757065",
"R  c #7C7364",
"E  c #777468",
"W  c #7B7569",
"Q  c #7D7A6E",
"!  c #7F7C71",
"~  c #996E37",
"^  c #A2783C",
"/  c #817666",
"(  c #827768",
")  c #817A6C",
"_  c #827E73",
"`  c #7F8226",
"'  c #B9993A",
"]  c #C3A33F",
"[  c #A2814F",
"{  c #848175",
"}  c #868479",
"|  c #89867B",
" . c #8C897E",
".. c #C6A740",
"X. c #8D8B80",
"o. c #A0968C",
"O. c #9CA8AD",
"+. c #B2AFA8",
"@. c #B3B0A9",
/* pixels */
"4 4 4 4 4 4 4 4 4 4 4 4 4 4 4 4 4 4 4 4 4 4 4 4 4 4 4 4 4 4 4 4 4 4 4 4 4 4 4 4 4 4 4 4 4 4 4 4 4 4 4 4 4 4 4 4 4 4 4 4 4 4 4 4 ",
"4 4 4 4 4 4 4 4 4 4 4 4 4 4 4 4 4 4 4 4 4 4 4 4 4 4 4 4 4 4 4 4 4 4 4 4 4 4 4 4 4 4 4 4 4 4 4 4 4 4 4 4 4 4 4 4 4 4 4 4 4 4 4 4 ",
"4 4 4 4 4 4 4 4 4 4 4 4 4 4 4 4 4 4 4 4 4 4 4 4 4 4 4 4 4 4 4 4 4 4 4 4 4 4 4 4 4 4 4 4 4 4 4 4 4 4 4 4 4 4 4 4 4 4 4 4 4 4 4 4 ",
"4 4 4 4 4 4 4 4 4 4 4 4 4 4 4 4 4 4 4 4 4 4 4 4 4 4 4 4 4 4 4 4 4 4 4 4 4 4 4 4 4 4 4 4 4 4 4 4 4 4 4 4 4 4 4 4 4 4 4 4 4 4 4 4 ",
"4 4 4 4 4 4 4 4 4 4 4 4 4 4 4 4 4 4 4 4 4 4 4 4 4 4 4 4 4 4 4 4 4 4 4 4 4 4 4 4 4 4 4 4 4 4 4 4 4 4 4 4 4 4 4 4 4 4 4 4 4 4 4 4 ",
"4 4 4 4 4 4 4 4 4 4 4 4 4 4 4 4 4 4 4 4 4 4 2 i g a a s s s i i i i 2 4 4 4 4 4 4 4 4 4 4 4 4 4 4 4 4 4 4 4 4 4 4 4 4 4 4 4 4 4 ",
"4 4 4 4 4 4 4 4 4 4 4 4 4 4 4 4 4 4 4 4 4 2 / ( ) ( ) ) ( ) ) ) ) ) G s 4 4 4 4 4 4 4 4 4 4 4 4 4 4 4 4 4 4 4 4 4 4 4 4 4 4 4 4 ",
"4 4 4 4 4 4 4 4 4 4 4 4 4 4 4 4 4 4 4 4 4 3 ( | | ( W W R E E R Q }  .K 2 4 4 4 4 4 4 4 4 4 4 4 4 4 4 4 4 4 4 4 4 4 4 4 4 4 4 4 ",
"4 4 4 4 4 4 4 4 4 4 4 4 4 4 4 4 4 4 4 4 4 p ( | ) m N D D D C D C _ } / 2 4 4 4 4 4 4 4 4 4 4 4 4 4 4 4 4 4 4 4 4 4 4 4 4 4 4 4 ",
"4 4 4 4 4 4 4 4 4 4 ` 4 4 4 4 4 4 4 4 4 4 p ( | ( U _ | _ _ _ _ F W } L u 4 4 4 4 4 4 4 4 4 4 4 4 4 4 4 4 4 4 4 4 4 4 4 4 4 4 4 ",
"4 4 4 d ` ` 4 4 4 ` 4 4 4 4 4 4 4 4 4 4 4 p (  .) Y _ _ _ _ _ _ H ) | / 2 4 4 4 4 4 4 4 4 4 4 4 4 4 4 4 4 4 4 4 4 4 4 4 4 4 4 4 ",
"4 4 4 4 ` d d 4 ` ` 4 4 4 4 4 4 4 4 4 4 4 2 ( X.( K _ _ _ _ _ Q D ) | / u 4 4 4 4 4 4 4 4 4 4 4 4 4 4 4 4 4 4 4 4 4 4 4 4 4 4 4 ",
"4 4 4 4 < d d 4 @.@.4 4 4 4 4 4 4 4 4 4 3 2 ( X._ K _ _ ) Q Q R D )  .( 2 4 4 4 4 4 4 4 4 4 4 4 4 4 4 4 4 4 4 4 4 4 4 4 4 4 4 4 ",
"4 4 4 4 4 < d @.[ [ @.4 4 4 4 4 4 4 4 4 4 i ( X._ / F K F F D D K }  .( 2 4 4 4 4 4 4 4 4 4 4 4 4 4 4 4 4 4 4 4 4 4 4 4 4 4 4 4 ",
"4 4 4 4 4 4 < < @.@.< 4 4 4 4 4 4 4 4 4 4 2 / X.X.X._ X. . . . .X. .X.K +                               4 4 4 4 4 4 4 4 4 4 4 4 ",
"4 4 4 4 4 4 4 4 < < 4 4 4 4 4 4 4 4 4 4 3 p D _ X.X.X.X.|  . .|  . .} w .                                 4 4 4 4 4 4 4 4 4 4 4 ",
"4 4 4 4 4 4 4 4 4 4 4 4 4 4 4 4 4 4 4 4 4 2 N W U U I U U U U J J A J z                                   4 4 4 4 4 4 4 4 4 4 4 ",
"4 4 4 4 4 4 4 4 4 4 4 4 4 4 4 4 4 4 4 4 4 1 C U J S J I J U U I J S U v                                   4 4 4 4 4 4 4 4 4 4 4 ",
"4 4 4 4 4 4 4 4 4 4 4 4 4 4 4 4 4 4 4 4 4 1 C U J J U U I U U U U I I n                                   4 4 4 4 4 4 4 4 4 4 4 ",
"4 4 4 4 4 4 4 4 4 4 4 4 4 4 4 4 4 4 4 4 4 1 c A A A A S J A J A A A P h                                   4 4 4 4 4 4 4 4 4 4 4 ",
"4 4 4 4 4 4 4 4 4 4 4 4 4 4 4 4 4 4 4 4 @.+.0 8 h v v n n v v j z h 5 O                                   4 4 4 4 4 4 4 4 4 4 4 ",
"4 4 4 4 4 4 4 4 4 4 4 4 4 4 4 4 4 4 4 +.[ [ @.> 5 6 7 8 z 8 6 6 5 * O                                     4 4 4 4 4 4 ` 4 4 4 4 ",
"4 4 4 4 4 4 4 4 4 4 4 4 4 4 4 4 4 4 4 < +.+.< o.w N n z Z Z Z Z Z 6                                       ` ` 4 4 4 ` 4 4 4 4 4 ",
"4 4 4 4 4 4 4 4 4 4 4 4 4 4 4 4 4 4 @.+.< < 4 o.v A M v A A A A P 8 .                                   3 ` O.O.4 ` ` 4 4 4 4 4 ",
"4 4 4 4 4 4 4 4 4 4 4 4 4 4 4 4 4 4 [ +.4 4 4 ; e A M v A A A A P h .                                 o 3 O.[ ^ O.d d 4 4 4 4 4 ",
"4 4 4 4 4 4 4 4 4 4 4 4 4 4 4 4 4 4 < < 4 4 4 1 w M n 8 M Z Z Z M 7                                   - d < O.O.< @.@.4 4 4 4 4 ",
"4 4 4 4 4 4 4 4 4 4 4 4 4 4 4 4 4 4 4 4 4 4 4 2 q v z w v n j M M =                               : : 4 4 4 < < 4 [ @.4 4 4 4 4 ",
"4 4 4 4 4 4 4 4 4 4 4 4 4 4 4 4 4 4 4 4 4 4 4 1 8 M M M M n v I I h .                           X d 4 4 4 4 4 4 4 < < 4 4 4 4 4 ",
"4 4 4 4 4 4 4 4 4 4 4 4 4 4 4 4 4 4 4 4 4 4 4 1 7 M M k M k v I P h .                           < 4 4 4 4 4 4 4 4 4 4 4 4 4 4 4 ",
"4 4 4 4 4 4 4 4 4 4 4 4 4 4 4 4 4 4 4 4 4 4 4 1 7 M M k k k v I I l .                         - d 4 4 4 4 4 4 4 4 4 4 4 4 4 4 4 ",
"4 4 4 4 4 4 4 4 4 4 4 4 4 4 4 4 4 4 4 4 4 4 4 2 & 8 j j k 8 7 v M =                           < 4 4 4 4 4 4 4 4 4 4 4 4 4 4 4 4 ",
"4 4 4 4 4 4 4 4 4 4 4 4 4 4 4 4 4 4 4 4 4 i c r 8 Z j n Z M Z Z N l $ % @                   o 4 4 4 4 4 4 4 4 4 4 4 4 4 4 4 4 4 ",
"4 4 4 4 4 4 4 4 4 4 4 4 4 4 4 4 4 4 4 4 u F Q J l P v M M P M A P l w b 5 .                 2 4 4 4 4 4 4 4 4 4 4 4 4 4 4 4 4 4 ",
"4 4 4 4 4 4 4 4 4 4 4 4 4 4 4 4 4 4 4 4 u R ! K l P v M P M P A M h z m 6 .               # 4 4 4 4 4 4 4 4 4 4 4 4 4 4 4 4 4 4 ",
"4 4 4 4 4 4 4 4 4 4 4 4 4 4 4 4 4 4 4 4 p R { U z Z k M M M M M P h l M 6 .               < 4 4 4 4 4 4 4 4 4 4 4 4 4 4 4 4 4 4 ",
"4 4 4 4 4 4 4 4 4 4 4 4 4 4 4 4 4 4 4 4 3 R { ( x M v n M M h 8 l h b C b .               4 4 4 4 4 4 4 4 4 4 4 4 4 4 4 4 4 4 4 ",
"4 4 4 4 4 4 4 4 4 4 4 4 4 4 4 4 4 4 4 4 p / _ Y m U I I P P M v A j z J C .               4 4 4 4 4 4 4 4 4 4 4 4 4 4 4 4 4 4 4 ",
"4 4 4 4 4 4 4 4 4 4 4 4 4 4 4 4 4 4 4 4 p / } Y b I P P A A M n Z h c E D .               4 4 4 4 4 4 4 4 4 4 4 4 4 4 4 4 4 4 4 ",
"4 4 4 4 4 4 4 4 4 4 4 4 4 4 4 4 4 4 4 4 p / | Y b I P P Z M M v A h M Q D .               4 4 4 4 4 4 4 4 4 4 4 4 4 4 4 4 4 4 4 ",
"4 4 4 4 4 4 4 4 4 4 4 4 4 4 4 4 4 4 4 4 p ( } ( x m M v v v v 6 v 8 S ! D .               4 4 4 4 4 4 4 4 4 4 4 4 4 4 4 4 4 4 4 ",
"4 4 4 4 4 4 4 4 4 4 4 4 4 4 4 4 4 4 4 4 p ( } } L V V V B m m c c C Q ! C .               4 4 4 4 4 4 4 4 4 4 4 4 4 4 4 4 4 4 4 ",
"4 4 4 4 4 4 4 4 4 4 4 4 4 4 4 4 4 4 4 4 f ( } { } { { { ! { ! ! Q ! ! ! C .               4 4 4 4 4 4 4 4 4 4 4 4 4 4 4 4 4 4 4 ",
"4 4 4 4 4 4 4 4 4 4 4 4 4 4 4 4 4 4 4 4 2 (  .| | | | } | } } } { { { } H .               4 4 4 4 4 4 4 4 4 4 4 4 4 4 4 4 4 4 4 ",
"4 4 4 4 4 4 4 4 4 4 4 4 4 4 4 4 4 4 4 4 1 D T J J U T T T T I U I I A I C .               4 4 4 4 4 4 4 4 4 4 4 4 4 4 4 4 4 4 4 ",
"4 4 4 4 4 4 4 4 4 4 4 4 4 4 4 4 4 4 4 4 1 q q t r e e y y q e q 6 q 9 q 9 2 4 4 4 4 4 4 4 4 4 4 4 4 4 4 4 4 4 4 4 4 4 4 4 4 4 4 ",
"4 4 4 4 4 4 4 4 4 4 4 4 4 4 4 4 4 4 4 4 ..' 2 , , 2 2 ~ ' 2 4 2 2 2 2 2 2 4 4 4 ` ` 4 4 4 4 4 4 4 4 4 4 4 4 4 4 4 4 4 4 4 4 4 4 ",
"4 4 4 4 4 4 4 4 4 4 4 4 4 4 4 4 4 4 4 ..^ ^ ] 4 4 4 4 < < 4 4 4 4 4 4 ` 4 4 4 4 ` < 4 4 4 4 4 4 4 4 4 4 4 4 4 4 4 4 4 4 4 4 4 4 ",
"4 4 4 4 4 4 4 4 4 4 4 4 4 4 4 4 4 4 4 < ..] < 4 4 4 4 4 4 4 4 4 4 4 4 < ` 4 4 ` 4 4 4 4 4 4 4 4 4 4 4 4 4 4 4 4 4 4 4 4 4 4 4 4 ",
"4 4 4 4 4 4 4 4 4 4 4 4 4 4 4 4 4 4 4 4 < < 4 4 4 4 4 4 4 4 4 4 4 4 4 4 < d d d < 4 4 4 4 4 4 4 4 4 4 4 4 4 4 4 4 4 4 4 4 4 4 4 ",
"4 4 4 4 4 4 4 4 4 4 4 4 4 4 4 4 4 4 4 4 4 4 4 4 4 4 4 4 4 4 4 4 4 4 4 4 < d d < 4 4 4 4 4 4 4 4 4 4 4 4 4 4 4 4 4 4 4 4 4 4 4 4 ",
"4 4 4 4 4 4 4 4 4 4 4 4 4 4 4 4 4 4 4 4 4 4 4 4 4 4 4 4 4 4 4 4 4 4 4 4 4 < d 4 4 4 4 4 4 4 4 4 4 4 4 4 4 4 4 4 4 4 4 4 4 4 4 4 ",
"4 4 4 4 4 4 4 4 4 4 4 4 4 4 4 4 4 4 4 4 4 4 4 4 4 4 4 4 4 4 4 4 4 4 4 4 4 4 4 4 4 4 4 4 4 4 4 4 4 4 4 4 4 4 4 4 4 4 4 4 4 4 4 4 ",
"4 4 4 4 4 4 4 4 4 4 4 4 4 4 4 4 4 4 4 4 4 4 4 4 4 4 4 4 4 4 4 4 4 4 4 4 4 4 4 4 4 4 4 4 4 4 4 4 4 4 4 4 4 4 4 4 4 4 4 4 4 4 4 4 ",
"4 4 4 4 4 4 4 4 4 4 4 4 4 4 4 4 4 4 4 4 4 4 4 4 4 4 4 4 4 4 4 4 4 4 4 4 4 4 4 4 4 4 4 4 4 4 4 4 4 4 4 4 4 4 4 4 4 4 4 4 4 4 4 4 ",
"4 4 4 4 4 4 4 4 4 ` [ < 4 4 4 4 4 4 4 4 4 4 4 4 4 4 4 4 4 4 4 4 4 4 4 4 4 4 4 4 4 4 4 4 4 4 4 4 4 4 4 4 4 4 4 4 d ` ` 4 4 4 4 4 ",
"4 4 4 d 4 4 4 d ` ` 4 4 4 4 4 4 4 4 4 4 4 4 4 4 4 4 4 4 4 4 4 4 4 4 4 4 4 4 4 4 4 4 4 4 4 4 4 4 4 4 4 4 4 4 4 d d ` 4 4 4 4 4 4 ",
"4 4 4 4 ` ` 4 ` ` < 4 4 4 4 4 4 4 4 4 4 4 4 4 4 4 4 4 4 4 4 4 4 4 4 4 4 4 4 4 4 4 4 4 4 4 4 4 4 4 4 4 4 4 4 4 ` d < 4 4 4 4 4 4 ",
"4 4 4 4 ` 4 ` < < < 4 4 4 4 4 4 4 4 4 4 4 4 4 4 4 4 4 4 4 4 4 4 4 4 4 4 4 4 4 4 4 4 4 4 4 4 4 4 4 4 4 4 4 4 4 < < 4 4 4 4 4 4 4 ",
"4 4 4 4 < ` ` < 4 4 4 4 4 4 4 4 4 4 4 4 4 4 4 4 4 4 4 4 4 4 4 4 4 4 4 4 4 4 4 4 4 4 4 4 4 4 4 4 4 4 4 4 4 4 4 4 4 4 4 4 4 4 4 4 ",
"4 4 < ` < < 4 4 4 4 4 4 4 4 4 4 4 4 4 4 4 4 4 4 4 4 4 4 4 4 4 4 4 4 4 4 4 4 4 4 4 4 4 4 4 4 4 4 4 4 4 4 4 4 4 4 4 4 4 4 4 4 4 4 ",
"4 4 4 4 4 4 4 4 4 4 4 4 4 4 4 4 4 4 4 4 4 4 4 4 4 4 4 4 4 4 4 4 4 4 4 4 4 4 4 4 4 4 4 4 4 4 4 4 4 4 4 4 4 4 4 4 4 4 4 4 4 4 4 4 ",
"4 4 4 4 4 4 4 4 4 4 4 4 4 4 4 4 4 4 4 4 4 4 4 4 4 4 4 4 4 4 4 4 4 4 4 4 4 4 4 4 4 4 4 4 4 4 4 4 4 4 4 4 4 4 4 4 4 4 4 4 4 4 4 4 ",
"4 4 4 4 4 4 4 4 4 4 4 4 4 4 4 4 4 4 4 4 4 4 4 4 4 4 4 4 4 4 4 4 4 4 4 4 4 4 4 4 4 4 4 4 4 4 4 4 4 4 4 4 4 4 4 4 4 4 4 4 4 4 4 4 ",
"4 4 4 4 4 4 4 4 4 4 4 4 4 4 4 4 4 4 4 4 4 4 4 4 4 4 4 4 4 4 4 4 4 4 4 4 4 4 4 4 4 4 4 4 4 4 4 4 4 4 4 4 4 4 4 4 4 4 4 4 4 4 4 4 "
};
