/* XPM */
static char *C[] = {
/* columns rows colors chars-per-pixel */
"64 64 130 2 ",
"   c #17111A",
".  c #2E2C1A",
"X  c #322F1B",
"o  c #34311D",
"O  c #36331E",
"+  c #1E1520",
"@  c #1A1E2F",
"#  c #1A1E30",
"$  c #1B2136",
"%  c #262129",
"&  c #302320",
"*  c #372538",
"=  c #483927",
"-  c #4F2D39",
";  c #493338",
":  c #4E3738",
">  c #5C3139",
",  c #643339",
"<  c #653439",
"1  c #6F3739",
"2  c #663C39",
"3  c #753939",
"4  c #7A3C3A",
"5  c #7C3E3B",
"6  c #636917",
"7  c #656C17",
"8  c #72751B",
"9  c #404F38",
"0  c #484E3C",
"q  c #5B553C",
"w  c #7A4339",
"e  c #787B21",
"r  c #2C2C46",
"t  c #37304B",
"y  c #3C3957",
"u  c #523947",
"i  c #5B3C4C",
"p  c #583E51",
"a  c #5A3E51",
"s  c #603D4B",
"d  c #374570",
"f  c #534F42",
"g  c #404F57",
"h  c #5A455C",
"j  c #485754",
"k  c #545552",
"l  c #61444B",
"z  c #6F424C",
"x  c #7E4646",
"c  c #7B5A4E",
"v  c #624751",
"b  c #6E4551",
"n  c #674D5C",
"m  c #694959",
"M  c #6B4E5A",
"N  c #6B4B5C",
"B  c #694B5E",
"V  c #6F4D5C",
"C  c #7B4852",
"Z  c #794F57",
"A  c #714B59",
"S  c #7C535D",
"D  c #796459",
"F  c #464660",
"G  c #474B64",
"H  c #4D4B67",
"J  c #554661",
"K  c #5E4F61",
"L  c #515069",
"P  c #52546A",
"I  c #644A61",
"U  c #694C61",
"Y  c #6B4E67",
"T  c #6D4D66",
"R  c #755361",
"E  c #7B5561",
"W  c #7A5A67",
"Q  c #70566B",
"!  c #765C6F",
"~  c #795E68",
"^  c #7E5E6B",
"/  c #7F5E6C",
"(  c #81543B",
")  c #955B31",
"_  c #935D32",
"`  c #8B6637",
"'  c #A2783C",
"]  c #844A47",
"[  c #814B4B",
"{  c #8A634A",
"}  c #8B7B5B",
"|  c #967B50",
" . c #855E66",
".. c #7F8226",
"X. c #338655",
"o. c #39855A",
"O. c #39876E",
"+. c #4A855A",
"@. c #558454",
"#. c #50855A",
"$. c #449150",
"%. c #529851",
"&. c #52985B",
"*. c #6A845D",
"=. c #68865D",
"-. c #629851",
";. c #6A915C",
":. c #759150",
">. c #488563",
",. c #4B9069",
"<. c #77856C",
"1. c #79996B",
"2. c #BA8F3F",
"3. c #CD9936",
"4. c #DFA636",
"5. c #9D844B",
"6. c #A2814F",
"7. c #BD9842",
"8. c #BA9D4B",
"9. c #AB8D51",
"0. c #AB9A5C",
"q. c #B1A465",
"w. c #B3A46B",
"e. c #C6A740",
"r. c #CDA743",
"t. c #CAA54F",
"y. c #DFB946",
"u. c #CFAD5F",
"i. c #9CA8AD",
"p. c #B3B0A9",
/* pixels */
"8 8 8 8 8 8 8 8 8 8 8 8 8 8 8 8 8 8 8 8 8 8 8 8 8 8 8 8 8 8 8 8 8 8 8 8 8 8 8 8 8 8 8 8 8 8 8 8 8 8 8 8 8 8 8 8 8 8 8 8 8 8 8 8 ",
"8 8 8 8 8 8 8 8 8 8 8 8 8 8 8 8 8 8 8 8 8 8 8 8 8 8 8 8 8 8 8 8 8 8 8 8 8 8 8 8 8 8 8 8 8 8 8 8 8 8 8 8 8 8 8 8 8 8 8 8 8 8 8 8 ",
"8 8 8 8 8 8 8 8 8 8 8 8 8 8 8 8 8 8 8 8 8 8 8 8 8 8 8 8 8 8 8 8 8 8 8 8 8 8 8 8 8 8 8 8 8 8 8 8 8 8 8 8 8 8 8 8 8 8 8 8 8 8 8 8 ",
"8 8 8 8 8 8 8 8 8 8 8 8 8 8 8 8 8 8 8 8 8 8 8 8 8 8 8 8 8 8 8 8 8 8 8 8 8 8 8 8 8 8 8 8 8 8 8 8 8 8 8 8 8 8 8 8 8 8 8 8 8 8 8 8 ",
"8 8 8 8 8 8 8 8 8 8 8 8 8 8 8 8 8 8 8 8 8 8 8 8 8 8 8 8 8 8 8 8 8 8 8 8 8 8 8 8 8 8 8 8 8 8 8 8 8 8 8 8 8 8 8 8 8 8 8 8 8 8 8 8 ",
"8 8 8 8 8 8 8 8 8 8 8 8 8 8 8 8 8 8 8 8 8 8 8 8 5.e 8 8 8 8 8 8 8 8 8 8 8 8 8 8 8 8 8 8 8 8 8 8 8 8 8 8 8 8 8 8 8 8 8 8 8 8 8 8 ",
"8 8 8 8 8 8 8 8 8 8 8 8 8 8 8 8 8 8 8 8 8 8 8 8 7 ..8 ..8 8 8 8 8 8 8 8 8 8 8 8 8 8 8 8 8 8 8 8 8 8 8 8 8 8 8 8 8 8 8 8 8 8 8 8 ",
"8 8 8 8 8 8 8 8 8 8 8 8 8 8 8 8 8 8 8 8 8 8 8 8 7 8 7 7 8 8 8 8 8 8 8 8 8 8 8 8 8 8 8 8 8 8 8 8 8 8 8 8 8 8 8 8 8 8 8 8 8 8 8 8 ",
"8 8 8 8 8 8 8 8 8 8 8 8 8 8 8 8 8 8 8 8 8 8 8 8 8 8 8 8 8 8 8 8 8 8 8 8 8 8 8 8 8 8 8 8 8 8 8 8 8 8 8 8 8 8 8 8 8 8 8 8 8 8 8 8 ",
"8 8 8 8 8 8 8 8 8 8 ..8 8 8 8 8 8 8 8 8 8 8 8 8 8 8 8 8 8 8 8 8 8 8 8 8 8 8 8 8 8 8 8 8 8 8 8 8 8 8 8 8 8 8 8 8 8 8 8 8 8 8 8 8 ",
"8 8 8 e ....8 8 8 ..8 8 8 8 8 8 8 8 8 8 8 8 8 8 8 8 8 8 8 8 8 8 8 8 8 8 8 8 8 8 8 8 8 8 8 8 8 8 8 8 8 8 8 8 8 8 8 8 8 8 8 8 8 8 ",
"8 8 8 8 ..e e 8 ....8 8 8 8 8 8 8 8 8 8 8 8 8 8 8 8 8 8 8 8 8 8 8 8 8 8 8 8 8 8 8 8 8 8 8 8 8 8 8 8 8 8 8 8 8 8 8 8 8 8 8 8 8 8 ",
"8 8 8 8 7 e e 8 p.p.8 8 8 8 8 8 8 8 8 8 8 8 8 8 8 8 8 8 8 8 8 8 8 8 8 8 8 8 8 8 8 8 8 8 8 8 8 8 8 8 8 8 8 8 8 8 8 8 8 8 8 8 8 8 ",
"8 8 8 8 8 7 e p.6.6.p.8 8 8 8 8 8 8 8 8 8 8 8 8 8 8 8 8 8 8 8 8 8 8 8 8 8 8 8 8 8 8 8 8 8 8 8 8 8 8 8 8 8 8 8 8 8 8 8 8 8 8 8 8 ",
"8 8 8 8 8 8 7 6 p.p.6 8 8 8 8 8 8 8 8 8 8 8 8 8 8 8 8 8 8 8 8 8 8 8 8 8 8 8 8 8 8 8 8 8 8 8 8 8 8 8 8 8 8 8 8 8 8 8 8 8 8 8 8 8 ",
"8 8 8 8 8 8 8 8 6 6 8 8 8 8 8 8 8 8 8 8 8 8 8 8 8 8 8 8 8 8 8 8 8 8 8 8 8 8 8 8 8 8 8 8 ..8 8 8 8 8 8 8 8 8 8 8 8 8 8 8 8 8 8 8 ",
"8 8 8 8 8 8 8 8 8 8 8 8 8 8 8 8 8 8 8 8 8 8 8 8 8 8 8 8 8 8 8 8 8 8 8 8 8 8 8 8 8 8 7 5.e 8 8 8 8 8 8 8 8 8 8 8 8 8 8 8 8 8 8 8 ",
"8 8 8 8 8 8 8 8 8 8 8 8 8 8 8 8 8 8 8 8 8 8 8 8 8 8 8 8 8 8 8 8 8 8 8 8 8 8 8 8 8 8 8 e 7 8 8 8 8 8 8 8 8 8 8 8 8 8 8 8 8 8 8 8 ",
"8 8 8 8 8 8 8 8 8 8 8 8 8 8 8 8 8 8 8 8 8 8 8 8 8 8 8 8 8 8 8 8 8 8 8 8 8 8 ......8 e e 7 8 8 8 8 8 8 8 8 8 8 8 8 8 8 8 8 8 8 8 ",
"8 8 8 8 8 8 8 8 8 8 8 8 8 8 8 8 8 8 8 8 8 8 8 8 8 8 8 8 8 8 8 8 8 8 8 8 8 8 8 ..8 8 7 e 7 8 8 8 8 8 8 8 8 8 8 8 8 8 8 8 8 8 8 8 ",
"8 8 8 8 8 8 8 8 8 8 8 8 8 8 8 8 8 8 8 8 p.p.8             8 8 8 8 8 8 8 8 8 8 7 ..8 7 7 8 8 8 8 8 8 8 8 8 8 8 8 8 8 8 8 8 8 8 8 ",
"8 8 8 8 8 8 8 8 8 8 8 8 8 8 8 8 8 8 8 p.6.6.  #.-.q : O.J $ # # 8 8 8 8 8 8 8 8 7 7 8 8 8 8 8 8 8 8 8 8 8 8 8 8 8 8 8 ..8 8 8 8 ",
"8 8 8 8 8 8 8 8 8 8 8 8 8 8 8 8 8 8 8 6 p.  y.q 3.#.j 9 [ R I h $     8 8 8 8 8 8 8 8 8 8 8 8 8 8 8 8 8 ......8 8 8 ..8 8 8 8 8 ",
"8 8 8 8 8 8 8 8 8 8 8 8 8 8 8 8 8 8 p.p.  y.3.3.-.v d z 3 3 R Q U n M @     8 8 8 8 8 8 8 8 8 8 8 8 8 8 8 ..i.i.8 ....8 8 8 8 8 ",
"8 8 8 8 8 8 8 8 8 8 8 8 8 8 8 8 8 8 6.p.  y.3._ 0 b U z 3 3 3 3 3 3 4 ) r.r..     8 8 8 8 8 8 8 8 8 8 8 8 i.6.6.i.8 8 8 8 8 8 8 ",
"8 8 8 8 8 8 8 8 8 8 8 8 8 8 8 8 8 8 6   y.3._ 2  .R S x 3 3 3 3 3 3 _ r.3.3.) 2 3   8 8 8 8 8 8 8 8 8 8 8 6 i.i.7 p.p.8 8 8 8 8 ",
"8 8 8 8 8 8 8 8 8 8 8 8 8 8 8 8 8 8 8   y.3._ 2 3 3 3 3 3 3 3 3 3 _ r.3.3.) 2 b s 1 + 8 8 8 8 8 8 8 8 8 8 8 7 7 8 5.p.8 8 8 8 8 ",
"8 8 8 8 8 8 8 8 8 8 8 8 8 8 8 8 8 8   y.3._ 2 3 E Z 3 E  .x 3 3 _ r.3.3._ 2 b U i , 1   8 8 8 8 8 8 8 8 8 8 8 8 8 6 6 8 8 8 8 8 ",
"8 8 8 8 8 8 8 8 8 8 8 8 8 8 8 8 8 8   ) 4.) 2 b U z b U ! Z 3 ) r.3.3._ 2 b U z 3 s s   8 8 8 8 8 8 8 8 8 8 8 8 8 8 8 8 8 8 8 8 ",
"8 8 8 8 8 8 8 8 8 8 8 8 8 8 8 8 8 8   y.) * > > 3 3 3 b U z 3 ) r.3._ 2 b !  .x 1 1 -   X 8 8 8 8 8 8 8 8 8 8 8 8 8 8 8 8 8 8 8 ",
"8 8 8 8 8 8 8 8 8 8 8 8 8 8 8 8 8 8   y.4.) ; > ) _ w 3 3 3 ) r.3.3._ 2 E Z 3 3 * * f @ X 8 8 8 8 8 8 8 8 8 8 8 8 8 8 8 8 8 8 8 ",
"8 8 8 8 8 8 8 8 8 8 8 8 8 8 8 8 8 8   y.4.) v c 5.y.) ) w 3 ) r.3.) > 3 3 3 * * a J B % X 8 8 8 8 8 8 8 8 8 8 8 8 8 8 8 8 8 8 8 ",
"8 8 8 8 8 8 8 8 8 8 8 8 8 8 8 8 8 8   w.4.) 2 ( y.2.8.8.) ; ) r.3.) > 3 * * p J i > y r X 8 8 8 8 8 8 8 8 8 8 8 8 8 8 8 8 8 8 8 ",
"8 8 8 8 8 8 8 8 8 8 8 8 8 8 8 8 8 8   w.4.) 2 ) y.` * 7.) v t ) ) * * * a J A i , > y r X 8 8 8 8 8 8 8 8 8 8 8 8 8 8 8 8 8 8 8 ",
"8 8 8 8 8 8 8 8 8 8 8 8 8 8 8 8 8 8   w.4.) 2 ( 8.4.` 4.) 2 { q.t.{ K J h A s < o.3 ;.u X 8 8 8 8 8 8 8 8 8 8 8 8 8 8 8 8 8 8 8 ",
"8 8 8 8 8 8 8 8 8 8 8 8 8 8 8 8 8 8   0.4.) 2 ) 8.8.4.4.) 2 ) r.4.) 2 a A s 3 4 A ^ *.  X 8 8 8 8 8 8 8 8 8 8 8 8 8 8 8 8 8 8 8 ",
"8 8 8 8 8 8 8 8 8 8 8 8 8 8 8 8 8 8   0.u.) 2 - ) ) 4.4._ 2 ) r.4.) 2 a z 5 5 5 <.W M   X 8 8 8 8 8 8 8 8 8 8 8 8 8 8 8 8 8 8 8 ",
"8 8 8 8 8 8 8 8 8 8 8 8 8 8 8 8 8 8   0.9.D l 3 > > ) ) B %.@.r.4._ 2 b z w 3 5 ~ W =.  X 8 8 8 8 8 8 8 8 8 8 8 8 8 8 8 8 8 8 8 ",
"8 8 8 8 8 8 8 8 8 8 8 8 8 8 8 8 8 8   0.} D g Y 1.S > > &.,.f q 4.) 2 3 [ [ 5 5 m =.M   X 8 8 8 8 8 8 8 8 8 8 8 8 8 8 8 8 8 8 8 ",
"8 8 8 8 8 8 8 8 8 8 8 8 8 8 8 8 8 8 8       H &.m W ^ W  . .+.j | ) 2 3 A C :.~ =.m M   X 8 8 8 8 8 8 8 8 8 8 8 8 8 8 8 8 8 8 8 ",
"8 8 8 8 8 8 8 8 8 8 8 8 8 8 8 8 8 8 8 X X X     9 :.l Z A A k >.| { l [ E  .<.*.=.Y o.  o 8 8 8 8 8 8 8 8 8 8 8 8 8 8 8 8 8 8 8 ",
"8 8 8 8 8 8 8 8 8 8 8 8 8 8 8 8 8 8 8 8 O X O .   $.o.  T U P G } c L T N *.n B H     O o 8 8 8 8 8 8 8 8 8 8 8 8 8 8 8 8 8 8 8 ",
"8 8 8 8 8 8 8 8 8 8 8 8 8 8 8 8 8 8 8 8 8 e e = =     .       P } c g U T Y N o.  X o X O 8 8 8 8 8 8 8 8 8 8 8 8 8 8 8 8 8 8 8 ",
"8 8 8 8 8 8 8 8 8 8 8 8 8 8 8 8 8 8 8 8 8 7 7.' ' = . . o o .     c F N u   H X.  X X X 8 8 8 8 8 8 8 8 8 8 8 8 8 8 8 8 8 8 8 8 ",
"8 8 8 8 8 8 8 8 8 8 8 8 8 8 8 8 8 8 8 8 8 8 6 7.7.7 . 9 3.X . . X       X X     X X 8 8 8 8 8 8 8 8 8 8 8 8 8 8 8 8 8 8 8 8 8 8 ",
"8 8 8 8 8 8 8 8 8 8 8 8 8 8 8 8 8 8 8 8 e.e.8 6 7 8 8 5.3.8 8 8 X X O O X X O X O o 8 8 8 8 8 8 8 8 8 8 8 8 8 8 8 8 8 8 8 8 8 8 ",
"8 8 8 8 8 8 8 8 8 8 8 8 8 8 8 8 8 8 8 e.' ' e.8 8 8 8 7 7 ..8 8 8 8 X & O 8 8 O O 6 8 8 8 8 8 8 8 8 8 8 8 8 8 8 8 8 8 8 8 8 8 8 ",
"8 8 8 8 8 8 8 8 8 8 8 8 8 8 8 8 8 8 8 6 e.e.6 8 8 8 8 7 ..7 8 8 8 8 8 6 8 e 8 e 8 8 8 8 8 8 8 8 8 8 8 8 8 8 8 8 8 8 8 8 8 8 8 8 ",
"8 8 8 8 8 8 8 8 8 8 8 8 8 8 8 8 8 8 8 8 6 6 8 8 8 8 8 8 8 8 8 8 8 8 8 8 6 ..8 ..7 8 8 8 8 8 8 8 8 8 8 8 8 8 8 8 8 8 8 8 8 8 8 8 ",
"8 8 8 8 8 8 8 8 8 8 8 8 8 8 8 8 8 8 8 8 8 8 8 8 8 8 8 8 8 8 8 8 8 8 8 8 6 8 ..7 8 8 8 8 8 8 8 8 8 8 8 8 8 8 8 8 8 8 8 8 8 8 8 8 ",
"8 8 8 8 8 8 8 8 8 8 8 8 8 8 8 8 8 8 8 8 8 8 8 8 8 8 8 8 8 8 8 8 8 8 8 8 8 7 ..7 8 8 8 8 8 8 8 8 8 8 8 8 8 8 8 8 8 8 8 8 8 8 8 8 ",
"8 8 8 8 8 8 8 8 8 8 8 8 8 8 8 8 8 8 8 8 8 8 8 8 8 8 8 8 8 8 8 8 8 8 8 8 8 8 8 8 8 8 8 8 8 8 8 8 8 8 8 8 8 8 8 8 8 8 8 8 8 8 8 8 ",
"8 8 8 8 8 8 8 8 8 8 8 8 8 8 8 8 8 8 8 8 8 8 8 8 8 8 8 8 8 8 8 8 8 8 8 8 8 8 8 8 8 8 8 8 8 8 8 8 8 8 8 8 8 8 8 8 8 8 8 8 8 8 8 8 ",
"8 8 8 8 8 8 8 8 8 8 8 8 8 8 8 8 8 8 8 8 8 8 8 8 8 8 8 8 8 8 8 8 8 8 8 8 8 8 8 8 8 8 8 8 8 8 8 8 8 8 8 8 8 8 8 8 8 8 8 8 8 8 8 8 ",
"8 8 8 8 8 8 8 8 8 ....8 8 8 8 8 8 8 8 8 8 8 8 8 8 8 8 8 8 8 8 8 8 8 8 8 8 8 8 8 8 8 8 8 8 8 8 8 8 8 8 8 8 8 8 8 ....5.7 8 8 8 8 ",
"8 8 8 e 8 8 8 e e ..8 8 8 8 8 8 8 8 8 8 8 8 8 8 8 8 8 8 8 8 8 8 8 8 8 8 8 8 8 8 8 8 8 8 8 8 8 8 8 8 8 8 8 8 8 8 8 ..8 8 8 8 8 8 ",
"8 8 8 8 ....8 e e 7 8 8 8 8 8 8 8 8 8 8 8 8 8 8 8 8 8 8 8 8 8 8 8 8 8 8 8 8 8 8 8 8 8 8 8 8 8 8 8 8 8 8 8 8 8 ....6 8 8 8 8 8 8 ",
"8 8 8 8 ..e e 7 7 8 8 8 8 8 8 8 8 8 8 8 8 8 8 8 8 8 8 8 8 8 8 8 8 8 8 8 8 8 8 8 8 8 8 8 8 8 8 8 8 8 8 8 8 8 8 7 7 7 8 8 8 8 8 8 ",
"8 8 8 8 7 e e 8 8 8 8 8 8 8 8 8 8 8 8 8 8 8 8 8 8 8 8 8 8 8 8 8 8 8 8 8 8 8 8 8 8 8 8 8 8 8 8 8 8 8 8 8 8 8 8 8 8 8 8 8 8 8 8 8 ",
"8 8 8 8 8 7 8 8 8 8 8 8 8 8 8 8 8 8 8 8 8 8 8 8 8 8 8 8 8 8 8 8 8 8 8 8 8 8 8 8 8 8 8 8 8 8 8 8 8 8 8 8 8 8 8 8 8 8 8 8 8 8 8 8 ",
"8 8 8 8 8 8 8 8 8 8 8 8 8 8 8 8 8 8 8 8 8 8 8 8 8 8 8 8 8 8 8 8 8 8 8 8 8 8 8 8 8 8 8 8 8 8 8 8 8 8 8 8 8 8 8 8 8 8 8 8 8 8 8 8 ",
"8 8 8 8 8 8 8 8 8 8 8 8 8 8 8 8 8 8 8 8 8 8 8 8 8 8 8 8 8 8 8 8 8 8 8 8 8 8 8 8 8 8 8 8 8 8 8 8 8 8 8 8 8 8 8 8 8 8 8 8 8 8 8 8 ",
"8 8 8 8 8 8 8 8 8 8 8 8 8 8 8 8 8 8 8 8 8 8 8 8 8 8 8 8 8 8 8 8 8 8 8 8 8 8 8 8 8 8 8 8 8 8 8 8 8 8 8 8 8 8 8 8 8 8 8 8 8 8 8 8 ",
"8 8 8 8 8 8 8 8 8 8 8 8 8 8 8 8 8 8 8 8 8 8 8 8 8 8 8 8 8 8 8 8 8 8 8 8 8 8 8 8 8 8 8 8 8 8 8 8 8 8 8 8 8 8 8 8 8 8 8 8 8 8 8 8 "
};
