/* XPM */
static char *Exit[] = {
/* columns rows colors chars-per-pixel */
"64 64 99 2 ",
"   c #4E2914",
".  c #512C15",
"X  c #512E18",
"o  c #523312",
"O  c #53321C",
"+  c #553919",
"@  c #543421",
"#  c #563A26",
"$  c #5B3B24",
"%  c #563D2C",
"&  c #5B3E2B",
"*  c #5E4A16",
"=  c #5F471F",
"-  c #604F17",
";  c #625417",
":  c #655B17",
">  c #61511B",
",  c #665A19",
"<  c #656B17",
"1  c #6A6519",
"2  c #6E6C1B",
"3  c #706F1E",
"4  c #72751B",
"5  c #5C4520",
"6  c #5E4A23",
"7  c #5B412D",
"8  c #574233",
"9  c #5A4433",
"0  c #5F4837",
"q  c #5B4738",
"w  c #5C4B3C",
"e  c #63442F",
"r  c #675627",
"t  c #675920",
"y  c #695C24",
"u  c #685628",
"i  c #6C5E2A",
"p  c #624632",
"a  c #644936",
"s  c #634C3B",
"d  c #66513E",
"f  c #68513F",
"g  c #6D6521",
"h  c #6E6821",
"j  c #6D612B",
"k  c #787B21",
"l  c #6F6139",
"z  c #5C4E41",
"x  c #5E5144",
"c  c #5F5449",
"v  c #614F41",
"b  c #635343",
"n  c #6B5543",
"m  c #665844",
"M  c #6D5A46",
"N  c #645649",
"B  c #695749",
"V  c #66594B",
"C  c #6B5C4C",
"Z  c #725D4B",
"A  c #655D53",
"S  c #6A5E51",
"D  c #6B604D",
"F  c #716046",
"G  c #74604F",
"H  c #676055",
"J  c #6C6254",
"K  c #6D655A",
"L  c #6E685D",
"P  c #736354",
"I  c #776A57",
"U  c #73675A",
"Y  c #736A5C",
"T  c #7A6C5D",
"R  c #746D62",
"E  c #796E61",
"W  c #767165",
"Q  c #7A7365",
"!  c #7A7669",
"~  c #7D796D",
"^  c #7F7C71",
"/  c #817666",
"(  c #827668",
")  c #817A6D",
"_  c #827E72",
"`  c #7F8226",
"'  c #A2814F",
"]  c #858275",
"[  c #888477",
"{  c #868479",
"}  c #89867A",
"|  c #8C897C",
" . c #908B7F",
".. c #8E8C81",
"X. c #918E82",
"o. c #939185",
"O. c #969388",
"+. c #99968C",
"@. c #B3B0A9",
/* pixels */
"4 4 4 4 4 4 4 4 4 4 4 4 4 4 4 4 4 4 4 4 4 4 4 4 4 4 4 4 4 4 4 4 4 4 4 4 4 4 4 4 4 4 4 4 4 4 4 4 4 4 4 4 4 4 4 4 4 4 4 4 4 4 4 4 ",
"4 4 4 4 4 4 4 4 4 4 4 4 4 4 4 4 4 4 4 4 4 4 4 4 4 4 4 4 4 4 4 4 4 4 4 4 4 4 4 4 4 4 4 4 4 4 4 4 4 4 4 4 4 4 4 4 4 4 4 4 4 4 4 4 ",
"4 4 4 4 4 4 4 4 4 4 4 4 4 4 4 4 4 4 4 4 4 4 4 4 4 4 4 4 4 4 4 4 4 4 4 4 4 4 4 4 4 4 4 4 4 4 4 4 4 4 4 4 4 4 4 4 4 4 4 4 4 4 4 4 ",
"4 4 4 4 4 4 4 4 4 4 4 4 4 4 4 4 4 4 4 4 4 4 4 4 4 4 4 4 4 4 4 4 4 4 4 4 4 4 4 4 4 4 4 4 4 4 4 4 4 4 4 4 4 4 4 4 4 4 4 4 4 4 4 4 ",
"4 4 4 4 4 4 4 4 4 4 4 4 4 4 4 4 4 4 4 4 4 4 4 4 4 4 4 4 4 4 4 4 4 4 4 4 4 4 4 4 4 4 4 4 4 4 4 4 4 4 4 4 4 4 4 4 4 4 4 4 4 4 4 4 ",
"4 4 4 4 4 4 4 4 4 4 4 4 4 4 4 4 4 4 4 4 4 4 4 4 ` k k 4 4 4 4 4 4 4 4 4 4 4 4 4 4 4 4 4 4 4 4 4 4 4 4 4 4 4 4 4 4 4 4 4 4 4 4 4 ",
"4 4 4 4 4 4 4 4 4 4 4 4 4 4 4 4 4 4 4 4 4 4 4 4 4 k k k 4 4 4 4 4 4 4 4 4 4 4 4 4 4 4 4 4 4 4 4 4 4 4 4 4 4 4 4 4 4 4 4 4 4 4 4 ",
"4 4 4 4 4 4 4 4 4 4 4 4 4 4 4 4 4 4 4 4 4 4 4 4 4 4 2 < 4 4 4 4 4 4 4 4 4 4 4 4 4 4 4 4 4 4 4 4 4 4 4 4 4 4 4 4 4 4 4 4 4 4 4 4 ",
"4 4 4 4 4 4 4 4 4 4 4 4 4 4 4 4 4 4 4 4 4 4 4 4 4 4 4 4 4 4 4 4 4 4 4 4 4 4 4 4 4 4 4 4 4 4 4 4 4 4 4 4 4 4 4 4 4 4 4 4 4 4 4 4 ",
"4 4 4 4 4 4 4 4 4 4 ` 4 4 4 4 4 4 4 4 4 4 4 4 4 4 4 4 4 4 4 4 4 4 4 4 4 4 4 4 4 4 4 4 4 4 4 4 4 4 4 4 4 4 4 4 4 4 4 4 4 4 4 4 4 ",
"4 4 4 k k ` 4 4 4 ` 4 4 4 4 4 4 4 4 4 4 4 4 4 4 4 4 g j j j j j i j i i y i 4 4 4 4 4 4 4 4 4 4 4 4 4 4 4 4 4 4 4 4 4 4 4 4 4 4 ",
"4 4 4 4 ` k k 4 ` ` 4 4 4 4 4 4 4 4 4 4 4 4 4 4 4 h ] ^ ] ~ } } } } } } [ ~ g 4 4 4 4 4 4 4 4 4 4 4 4 4 4 4 4 4 4 4 4 4 4 4 4 4 ",
"4 4 4 4 < k k 4 @.@.4 4 4 4 4 4 4 4 4 4 4 4 4 4 4 h | { [ } } P J P | { { ] n 4 4 4 4 4 4 4 4 4 4 4 4 4 4 4 4 4 4 4 4 4 4 4 4 4 ",
"4 4 4 4 4 < k @.' ' @.4 4 4 4 4 4 4 4 4 4 4 h , t u | { } } } ~ ~ T | [ [ [ Z ; t t 4 4 4 4 4 4 4 4 4 4 4 4 4 4 4 4 4 4 4 4 4 4 ",
"4 4 4 4 4 4 < < @.@.< 4 4 4 4 4 4 4 4 3 3 s C _ ^ T [ [ [ } [ P  .X.| | | | F J ^ ) p p 3 3 4 4 4 4 4 4 4 4 4 4 4 4 4 4 4 4 4 4 ",
"4 4 4 4 4 4 4 4 < < 4 4 4 4 4 4 4 4 i Q ! [ T a s a | | } | | | [ [ | [ } } F p s a _ ] Q I 4 4 4 4 4 4 4 4 4 4 4 4 4 4 4 4 4 4 ",
"4 4 4 4 4 4 4 4 4 4 4 4 4 4 4 g l P E ] P Z U [ [ / [ [ | | [ [  .} | } } | Z { { { Z P ( Q r i 1 4 4 4 4 4 4 4 4 4 4 4 4 4 4 4 ",
"4 4 4 4 4 4 4 4 4 4 4 4 4 3 s ) } [ [ e Q _ ] ] [ / [ [ [ | | | | }  .| } } C } { { { { P Z / W T p y 4 4 4 4 4 4 4 4 4 4 4 4 4 ",
"4 4 4 4 4 4 4 4 4 4 4 4 r Z [ ] { f E ] ] ) ] ] _ [ s | [  . .o. .o.X.| } X.E _ ] { { | [ [ W G ~ ) / e 2 4 4 4 4 4 4 4 4 4 4 4 ",
"4 4 4 4 4 4 4 4 4 4 4 2 _ | | E n [ _ ] ] [ [ [ } P @ _ [ P Y K L Y R _ ..[ ! } ] ] { [ ] ] ..S f ~ ) ] $ 4 4 4 4 4 4 4 4 4 4 4 ",
"4 4 4 4 4 4 4 4 4 4 u n B U ) ! ] ] ] ] ] [ [ | R b O S D D D D M M M Y R R U Q o.{ ^ ] ^ ^ ^ ..{ $ ] s ] O 4 4 4 4 4 4 4 4 4 4 ",
"4 4 4 4 4 4 4 4 k u _ ] } P E _ ] ] ] { [ | K H A A X # # 9 9 6 a d d s q s K Q W ~ ^ .._ _ ^ _ ^ ] s { { [ T 2 4 4 4 ` 4 4 4 4 ",
"4 4 4 4 4 4 4 4 g _ _ _ E E _ { [ [ { [ ~ c c q % # C D D Y Y W Y T W W S v s v S R W R { ^ _ ) ^ ] ^ s _ ] _ a 4 4 ` 4 4 4 4 4 ",
"4 4 4 4 4 4 4 4 a ) _ E ) _ } } { { { ~ x x   b D Y I I Y Y Y Y W Q W W Q b b ~ ~ b w R K ....) ^ ^ ~ ] $ ] _ _ - ` ` 4 4 4 4 4 ",
"4 4 4 4 4 4 4 , T ~ ) n { { } ..X.X.W w # 8 H Y Y Y Y Y R Y W W W Q W ! K ! ! W W W R v A R ...._ _ } _ G / ( _ C k k 4 4 4 4 4 ",
"4 4 4 4 3 B n n n n s n N N _ _ ] | w 8 d K Y K Y Y W W W ! W ! ! ! ! m ^ W ! W W R Q ~ B N A _ ) ( U Z Z n Z Z M n n M g 4 4 4 ",
"4 4 4 4 / | .._ _ _ _ ~ ^ ^ ^ ..b V @ w Y R L U W w w d d w x l V V V m V m V V _ R W W W P N ) _ .. ._ _ _ _ [ _ [ _ | e 4 4 4 ",
"4 4 4 4 ( _ _ ] _ _ _ _ _ ^ ^ ^ ..w 0 K Y Y Y Y D m K K K K K I K Y K Y Y L R H A Q W Q ! ! X ) .._ _ _ _ _ [ [ _ [ [  .e 4 4 4 ",
"4 4 4 4 ( ] _ _ ^ ~ _ _ _ _ _ ^ ^   b Y R J Y W A D W W W Y W W W W W W W ~ ! Y S K W Q ! ! ) q .._ _ _ _ _ [ ( _ _ _ | e 4 4 4 ",
"4 4 4 4 ( { { R } | Q _ _ { ^ ^ I w K Y L W L W H A W W W W W W ! ! W W W Q Q Y S R W W W W W & X._ _ .. ._ _ _ | I [  .e 4 4 4 ",
"4 4 4 4 ( { { U _ _ E { { { { ..P b Y W R W W c m H W W W W W ! W Q W ! ! W Q R A R W W W W W v O._ _ _  .[ _ ( / M |  .e 4 4 4 ",
"4 4 4 4 ( [ [ | B B ..} .._ { ..P b Y W W W W ] D K W ! ! ~ ! ! Q Q ! ! ! Q ! Y K W W W W W W a o.} _ .._  ._ n I  . .o.e 4 4 4 ",
"4 4 4 4 ( | } } ..} } } } .._ ..I c Y W W W W ~ L K ! W ~ ~ W ~ ! ! ~ Q ! Q Q I J ! W W W W W 0 X.{ { [ [ } ....| | ....p 4 4 4 ",
"4 4 4 4 ( ..| } _ ..} } } _ .._ I c L W ! ! ~ W L L ! ! ! ~ ~ Q ~ ~ ! ~ ~ ! ~ ! K ! W W W W R 0 X.{ | [ } ..| | .._ | X.e 4 4 4 ",
"4 4 4 4 ( X...| ....| } _ _ _ a 7 . R ! ~ ~ ^ W Y Y ! ! ~ ! ~ ~ ~ ~ ~ ~ ~ ~ ~ W K ! ! R R L R & v n _ _ _ [ | ..( ( [ X.e 4 4 4 ",
"4 4 4 4 S ) ^ R R R W U _ _ _ { ] I Y ^ ^ ~ ^ W R Y ~ W ~ ! ~ ~ ~ ~ ~ ~ ~ ~ ~ W K ! ! ! W R w ! _ _ _ ! B S L R R R R Q X 4 4 4 ",
"4 4 4 4 B K A S C S B e { _ _ _ ^ ] I Y ~ ^ ~ ! Y L ~ ^ ^ ^ ^ ~ ~ _ _ ~ ] _ ^ W K ! ! ! Q S ! ^ ) ) ) ) v J N C N S A K   4 4 4 ",
"4 4 4 4 N A X [ _ ) E S c ...._ ] ] { Q ! ~ ^ ! R U P D D C J D D D D D l m D L L ! ! ! B U R { _ ^ ^ ..@ ~ _ { } X.b K   4 4 4 ",
"4 4 4 4 5 # X ) _ ^ ~ E % ) { _ { { { | ~ M ^ ~ ~ ~ ~ ~ ~ ~ ) ~ ~ _ ~ Y L ~ ~ ~ ^ ! T s S ] ] _ _ _ _ A n ) _ { ..K O $ , 4 4 4 ",
"4 4 4 4 4 4 = K _ _ ) ^ B v _ { ] { [ {  .[ D L ^ ~ ! ! ~ ~ ~ ~ ~ ~ ~ _ W ! ~ ! ! J P { ] [ { { { ..S % U _ { { _ q 2 4 4 4 4 4 ",
"4 4 4 4 4 4 4 & R _ _ ^ ^ B K ..o.} { } } { ] ] $ d / ~ Q ~ ~ ~ ~ ! ! ! ~ ~ Q & p } } } ] { { { | N % E W ^ { | x X 4 4 4 4 4 4 ",
"4 4 4 4 4 4 4 = A | _ ^ J a & R D W | { | { ] ] ] E I M M M Z M F F F D P ! G _ } | ..} | { ....H z 0 b B { { T % 4 4 4 4 4 4 4 ",
"4 4 4 4 4 4 4 4 5 A E E ..~ G N Y W | | | { { ] ] ] Q / | | | } [ ] ] ] T M ) [ { { _ ..{ ..{ b b q T ! ! C Q q > 4 4 4 4 4 4 4 ",
"4 4 4 4 4 4 4 4 1 A S .._ _ _ ^ $ T T ~ o.{ [ { } [ F [ } | ] [ { ] ] ] ] | Q ] _ .._ ..O.V N 8 q _ _ ~ ! E # O 4 4 4 4 4 4 4 4 ",
"4 4 4 4 4 4 4 4 4 , N R ..{ _ _ { P a K L ~ )  .| / | [ [ [ } } [ { [ ] ] ] G ] o.o.E R V x 9 T ) ) ~ _ K z O 2 4 4 4 4 4 4 4 4 ",
"4 4 4 4 4 4 4 4 4 4 t V K _ ..{ | [ X.p V J P D ~ /  .[ | [ | / ] ~ [ [ [ [ G [ C B N b b s Q ! ) ) ~ E w 7 4 4 4 4 4 4 4 4 4 4 ",
"4 4 4 4 4 4 4 4 4 4 4 1 A K R ..| ..T ] ( 9 o V F n  . .| | | P  .) | | [ [ G d B & X ) ] _ ] ) ) ] c z O 4 4 4 4 4 4 4 4 4 4 4 ",
"4 4 4 4 4 4 4 4 4 4 4 4 > 6 L K ^ U ] ] ] ] _ m f f  .|  .| | T / Q | [ | [ F s C W ) [ [ [ _ ) K c q > 3 4 4 4 4 4 4 4 4 4 4 4 ",
"4 4 4 4 4 4 4 4 4 4 4 4 4 4 + b A v { | { { _ ! ~ I X.....| | X.|  .| | [ | G J ] ] { [ { ] c b w + ; 4 4 4 4 4 4 4 4 4 4 4 4 4 ",
"4 4 4 4 4 4 4 4 4 4 4 4 4 4 4 2 > O L A L K R ....( O.+.+.O.O.o.o.| X.o.O.O.Z Y ..| D D b x w   2 4 4 4 4 4 4 4 4 4 4 4 4 4 4 4 ",
"4 4 4 4 4 4 4 4 4 4 4 4 4 4 4 4 4 4 * 9 A A A A N q R R K K K K K K H K K E % 9 m m x x 9 5 > 4 4 4 4 4 4 4 4 4 4 4 4 4 4 4 4 4 ",
"4 4 4 4 4 4 4 4 4 4 4 4 4 4 4 4 4 4 4 4 o O 5 x z % R K K K H A H H H A H H # 7 s s o o : 4 4 4 4 4 4 4 4 4 4 4 4 4 4 4 4 4 4 4 ",
"4 4 4 4 4 4 4 4 4 4 4 4 4 4 4 4 4 4 4 4 4 4 4 < 2 > Y K N N V A V H H A A V # 1 < 2 4 4 4 4 4 4 4 4 4 4 4 4 4 4 4 4 4 4 4 4 4 4 ",
"4 4 4 4 4 4 4 4 4 4 4 4 4 4 4 4 4 4 4 4 4 4 4 4 4 1 s & 8 % q 9 9 9 8 8 8 8 6 4 4 4 4 4 4 4 4 4 4 4 4 4 4 4 4 4 4 4 4 4 4 4 4 4 ",
"4 4 4 4 4 4 4 4 4 ` ` 4 4 4 4 4 4 4 4 4 4 4 4 4 4 4 4 4 4 4 4 4 4 4 4 4 4 4 4 4 4 4 4 4 4 4 4 4 4 4 4 4 4 4 4 4 k ` ` 4 4 4 4 4 ",
"4 4 4 k 4 4 4 k 4 ` 4 4 4 4 4 4 4 4 4 4 4 4 4 4 4 4 4 4 4 4 4 4 4 4 4 4 4 4 4 4 4 4 4 4 4 4 4 4 4 4 4 4 4 4 4 4 k ` 4 4 4 4 4 4 ",
"4 4 4 4 ` ` 4 k k < 4 4 4 4 4 4 4 4 4 4 4 4 4 4 4 4 4 4 4 4 4 4 4 4 4 4 4 4 4 4 4 4 4 4 4 4 4 4 4 4 4 4 4 4 4 k k < 4 4 4 4 4 4 ",
"4 4 4 4 ` k k 2 < 4 4 4 4 4 4 4 4 4 4 4 4 4 4 4 4 4 4 4 4 4 4 4 4 4 4 4 4 4 4 4 4 4 4 4 4 4 4 4 4 4 4 4 4 4 4 < < 4 4 4 4 4 4 4 ",
"4 4 4 4 < ` k 4 4 4 4 4 4 4 4 4 4 4 4 4 4 4 4 4 4 4 4 4 4 4 4 4 4 4 4 4 4 4 4 4 4 4 4 4 4 4 4 4 4 4 4 4 4 4 4 4 4 4 4 4 4 4 4 4 ",
"4 4 4 4 4 < 4 4 4 4 4 4 4 4 4 4 4 4 4 4 4 4 4 4 4 4 4 4 4 4 4 4 4 4 4 4 4 4 4 4 4 4 4 4 4 4 4 4 4 4 4 4 4 4 4 4 4 4 4 4 4 4 4 4 ",
"4 4 4 4 4 4 4 4 4 4 4 4 4 4 4 4 4 4 4 4 4 4 4 4 4 4 4 4 4 4 4 4 4 4 4 4 4 4 4 4 4 4 4 4 4 4 4 4 4 4 4 4 4 4 4 4 4 4 4 4 4 4 4 4 ",
"4 4 4 4 4 4 4 4 4 4 4 4 4 4 4 4 4 4 4 4 4 4 4 4 4 4 4 4 4 4 4 4 4 4 4 4 4 4 4 4 4 4 4 4 4 4 4 4 4 4 4 4 4 4 4 4 4 4 4 4 4 4 4 4 ",
"4 4 4 4 4 4 4 4 4 4 4 4 4 4 4 4 4 4 4 4 4 4 4 4 4 4 4 4 4 4 4 4 4 4 4 4 4 4 4 4 4 4 4 4 4 4 4 4 4 4 4 4 4 4 4 4 4 4 4 4 4 4 4 4 ",
"4 4 4 4 4 4 4 4 4 4 4 4 4 4 4 4 4 4 4 4 4 4 4 4 4 4 4 4 4 4 4 4 4 4 4 4 4 4 4 4 4 4 4 4 4 4 4 4 4 4 4 4 4 4 4 4 4 4 4 4 4 4 4 4 "
};
