/* XPM */
static char *Seq_4[] = {
/* columns rows colors chars-per-pixel */
"64 64 18 1 ",
"  c black",
". c #223A30",
"X c #3A3B3D",
"o c #636917",
"O c #656C17",
"+ c #72751B",
"@ c #787B21",
"# c #3A5941",
"$ c #496B51",
"% c #5F6367",
"& c #A2783C",
"* c #7F8226",
"= c #A2814F",
"- c #C6A740",
"; c #869598",
": c #9CA8AD",
"> c #B3B0A9",
", c #ACC2C3",
/* pixels */
"++++++++++++++++++++++++++++++++++++++++++++++++++++++++++++++++",
"++++++++++++++++++++++++++++++++++++++++++++++++++++++++++++++++",
"++++++++++++++++++++++++++++++++++++++++++++++++++++++++++++++++",
"++++++++++++++++++++++++++++++++++++++++++++++++++++++++++++++++",
"++++++++++++++++++++++++++++++++++++++++++++++++++++++++++++++++",
"++++++++++++++++++++++++*@@+++++++++++++++++++++++++++++++++++++",
"+++++++++++++++++++++++++@@@++++++++++++++++++++++++++++++++++++",
"++++++++++++++++++++++++++OO++++++++++++++++++++++++++++++++++++",
"++++++++++++++++++++++++++++++++++++++++++++++++++++++++++++++++",
"++++++++++*+++++++++++++++++++++++++++++++++++++++++++++++++++++",
"+++@**+++*++++++++++++++++++++++++++++++++++++++++++++++++++++++",
"++++*@@+**++++++++++++++++++++++++++++++++++++++++++++++++++++++",
"++++O@@+>>++++++++++++++++++++++++++++++++++++++++++++++++++++++",
"+++++O@>==>+++++++++++++++++++++++++++++++++++++++++++++++++++++",
"++++++Oo>>o+++++++++++++++++++++++++++++++++++++++++++++++++++++",
"++++++++oo++++++++++++++++++++++++++++++++++@@++++++++++++++++++",
"+++++++++++++++++++++++++++++++++++++++++++*@+++++++++++++++++++",
"++++++++++++++++      ++++++++++++++++++++@@O+++++++++++++++++++",
"+++++++++++++++ ;;;;;; +++++++++++++++**@+@@O+++++++++++++++++++",
"++++++++++++++ ;,,,,,,; +++++++++++++++*@@O@O+++++++++++++++++++",
"++++++++++++++ ;,,,,,,% +++++++++++++++O@@OO++++++++++++++++++++",
"++++++++++++++ %;;,,,,% >>++++++++++++++OO+++++++++++++++++*++++",
"++++++++++++++ %%%%%%%X =>++++++++++++++++++++++++++@**+++*+++++",
"++++++   +++++ %%  XXXX >o+++++++++++++++++++++++++++*::+**+++++",
"++++++ ; +++++ %X       o++++++++++++++++++++++++++++:==:@@+++++",
"++++++  . +++  %XX      +++++++++++++++++++++++++++++o::o>>+++++",
"++++++++ . + ; X%XXXXXX ++++++++++++++++++++++++++++++oo+=>+++++",
"+++++++++ . , + X%%%%%% +++++++++++++++++++++++++++++++++oo+++++",
"++++++++++ %;, + XXXXX +++++++++++++++++++++++++++++++++++++++++",
"+++++++++ ;;%;, %      +++++++++++++++++++++++++++++++++++++++++",
"++++++++ ; ;;% ;;%%%%%% ++++++++++++++++++++++++++++++++++++++++",
"++++++++   %; ##;;;;;;% ++++++++++++++++++++++++++++++++++++++++",
"+++++++++++  #### ;##%  ++++++++++++++++++++++++++++++++++++++++",
"++++++++++++ ###  ##.% . +++++++++++++++++++++++++++++++++++++++",
"+++++++++++ ;,#  X#..% . +++++++++++++++++++++++++++++++++++++++",
"+++++++++++ ;; ; X... ..;  +++++++++++++++++++++++++++++++++++++",
"++++++++++ ;; +  X%.%  ;X;; ++++++++++++++++++++++++++++++++++++",
"++++++++++ X; ++ %%%% + XXX ++++++++++++++++++++++++++++++++++++",
"++++++++++ XX ++    %  *   +++++++++++++++++++++++++++++++++++++",
"+++++++++++  ++ #$$$    @++++*++++++++++++++++++++++++++++++++++",
"+++++++++++++++ ##$$$$$ @@+@*+++++++++++++++++++++++++++++++++++",
"++++++++++++++ .  ##$$,X @@@O+++++++++++++++++++++++++++++++++++",
"++++++++++++++ ...    %% O@@O+++++++++++++++++++++++++++++++++++",
"+++++++++++++ %X. +++ X%% @O++++++++++++++++++++++++++++++++++++",
"+++++++++++++ %% ++++ XXX +--+++++++++++++++++++++++++++++++++++",
"++++++++++++ X% ++++--    +&-+++++++++++*@++++++++++++++++++++++",
"++++++++++++ XX +++-&&-++++oo++++++*@++@*O++++++++++++++++++++++",
"++++++++++++   ++++o--o++++++++++++O@@+@@+++++++++++++++++++++++",
"++++++++++++++++++++oo++++++++++++++O@@@O+++++++++++++++++++++++",
"++++++++++++++++++++++++++++++++++++O@@O++++++++++++++++++++++++",
"+++++++++++++++++++++++++++++++++++++O@+++++++++++++++++++++++++",
"++++++++++++++++++++++++++++++++++++++++++++++++++++++++++++++++",
"++++++++++++++++++++++++++++++++++++++++++++++++++++++++++++++++",
"++++++++++++++++++++++++++++++++++++++++++++++++++++++++++++++++",
"+++++++++**+++++++++++++++++++++++++++++++++++++++++++++@**+++++",
"+++@+++@@*+++++++++++++++++++++++++++++++++++++++++++++@@*++++++",
"++++**+@@O+++++++++++++++++++++++++++++++++++++++++++++@@O++++++",
"++++*@@OO++++++++++++++++++++++++++++++++++++++++++++++OO+++++++",
"++++O@@+++++++++++++++++++++++++++++++++++++++++++++++++++++++++",
"+++++O++++++++++++++++++++++++++++++++++++++++++++++++++++++++++",
"++++++++++++++++++++++++++++++++++++++++++++++++++++++++++++++++",
"++++++++++++++++++++++++++++++++++++++++++++++++++++++++++++++++",
"++++++++++++++++++++++++++++++++++++++++++++++++++++++++++++++++",
"++++++++++++++++++++++++++++++++++++++++++++++++++++++++++++++++"
};
