/* XPM */
static char *Seq_1[] = {
/* columns rows colors chars-per-pixel */
"64 64 18 1 ",
"  c black",
". c #223A30",
"X c #3A3B3D",
"o c #636917",
"O c #656C17",
"+ c #72751B",
"@ c #787B21",
"# c #3A5941",
"$ c #5F6367",
"% c #A2783C",
"& c #7F8226",
"* c #A2814F",
"= c #BD9842",
"- c #C6A740",
"; c #869598",
": c #9CA8AD",
"> c #B3B0A9",
", c #ACC2C3",
/* pixels */
"++++++++++++++++++++++++++++++++++++++++++++++++++++++++++++++++",
"++++++++++++++++++++++++++++++++++++++++++++++++++++++++++++++++",
"++++++++++++++++++++++++++++++++++++++++++++++++++++++++++++++++",
"++++++++++++++++++++++++++++++++++++++++++++++++++++++++++++++++",
"++++++++++++++++++++++++++++++++++++++++++++++++++++++++++++++++",
"++++++++++++++++++++++++&@@+++++++++++++++++++++++++++++++++++++",
"+++++++++++++++++++++++++@@@++++++++++++++++++++++++++++++++++++",
"++++++++++++++++++++++++++OO++++++++++++++++++++++++++++++++++++",
"++++++++++++++++++++++++++++++++++++++++++++++++++++++++++++++++",
"++++++++++&+++++++++++++++++++++++++++++++++++++++++++++++++++++",
"+++@&&+++&++++++++++++++++++++++++++++++++++++++++++++++++++++++",
"++++&@@+&&++++++++++++++++++++++++++++++++++++++++++++++++++++++",
"++++O@@+>>++++++++++++++++++++++++++++++++++++++++++++++++++++++",
"+++++O@>**>+++++++++++++++++++++++++++++++++++++++++++++++++++++",
"++++++Oo>>o+++++++++++++++++++++++++++++++++++++++++++++++++++++",
"++++++++oo++++++++++++++++++++++++++++++++++@@++++++++++++++++++",
"+++++++++++++++++++++++++++++++++++++++++++&@+++++++++++++++++++",
"++++++++++++++++++++++++++++++++++++++++++@@O+++++++++++++++++++",
"+++++++++++++++++++++++++++++      +++&&@+@@O+++++++++++++++++++",
"++++++++++++++++++++++++++++ ;;;;;; +++&@@O@O+++++++++++++++++++",
"++++++++++++++++++++>>+++++ ;,,,,,,; ++O@@OO++++++++++++++++++++",
"+++++++++++++++++++>**>+>>+ ;,,,,,,$ +++OO+++++++++++++++++&++++",
"+++++++++++++++++++o>>o>*>+ $;;,,,,$ +++++++++++++++@&&+++&+++++",
"++++++++++++++++++>>oo+>>o+ $$$$$$$X ++++++++++++++++&::+&&+++++",
"++++++++++++++++++*>   oo++ $$$  XXX ++++++++++++++++:**:@@+++++",
"++++++++++++++++++oo ; ++++ $$X      ++++++++++++++++o::o>>+++++",
"++++++++++++++++++++  . +++ $$XX     +++++++++++++++++oo+*>+++++",
"++++++++++++++++++++++ . +  $X$XXXXX ++++++++++++++++++++oo+++++",
"+++++++++++++++++++++++ . ,  XX$$$$$ +++++++++++++++++++++++++++",
"++++++++++++++++++++++++ $;,  XXXXX ++++++++++++++++++++++++++++",
"+++++++++++++++++++++++ ;;$; $      ++++++++++++++++++++++++++++",
"++++++++++++++++++++++ ; ;; ;;$$$$$$ +++++++++++++++++++++++++++",
"++++++++++++++++++++++  + ; #;;;;;$$ +++++++++++++++++++++++++++",
"++++++++++++++++++++++++++  ## ;##$  +++++++++++++++++++++++++++",
"++++++++++++++++++++++++++ ### ;##.  +++++++++++++++++++++++++++",
"++++++++++++++++++++++++++ ,# X##..  +++++++++++++++++++++++++++",
"++++++++++++++++++++++++++ ;, X#.. $$ ++++++++++++++++++++++++++",
"++++++++++++++++++++++++++ ;; X... X$ ++++++++++++++++++++++++++",
"++++++++++++++++++++++&&++ X;; $.$ XX ++++++++++++++++++++++++++",
"+++++++++++++++++++++++&@+ XX; $$X   , +++++++++++++++++++++++++",
"+++++++++++++++++++++++@@@ XXX XX  ;$;, ++++++++++++++++++++++++",
"++++++++++++++++++++&@@O@@@   #  . ;;;, ++++++++++++++++++++++++",
"+++++++++++++++++++++@@==O@@O ##... ;;, ++++++++++++++++++++++++",
"+++++++++++++++++++++O=%%=@O XX  $X     ++++++++++++++++++++++++",
"++++++++++++++++++++++o==o+- X,  $$ ++++++++++++++++++++++++++++",
"++++++++++++++++++++--+oo++% ,$  X$$ +++&@++++++++++++++++++++++",
"+++++++++++++++++++-%%-++++o $$  XXX ++@&O++++++++++++++++++++++",
"+++++++++++++++++++o--o+++++ XX      @+@@+++++++++++++++++++++++",
"++++++++++++++++++++oo++++++    ++++O@@@O+++++++++++++++++++++++",
"++++++++++++++++++++++++++++++++++++O@@O++++++++++++++++++++++++",
"+++++++++++++++++++++++++++++++++++++O@+++++++++++++++++++++++++",
"++++++++++++++++++++++++++++++++++++++++++++++++++++++++++++++++",
"++++++++++++++++++++++++++++++++++++++++++++++++++++++++++++++++",
"++++++++++++++++++++++++++++++++++++++++++++++++++++++++++++++++",
"+++++++++&&+++++++++++++++++++++++++++++++++++++++++++++@&&+++++",
"+++@+++@@&+++++++++++++++++++++++++++++++++++++++++++++@@&++++++",
"++++&&+@@O+++++++++++++++++++++++++++++++++++++++++++++@@O++++++",
"++++&@@OO++++++++++++++++++++++++++++++++++++++++++++++OO+++++++",
"++++O@@+++++++++++++++++++++++++++++++++++++++++++++++++++++++++",
"+++++O++++++++++++++++++++++++++++++++++++++++++++++++++++++++++",
"++++++++++++++++++++++++++++++++++++++++++++++++++++++++++++++++",
"++++++++++++++++++++++++++++++++++++++++++++++++++++++++++++++++",
"++++++++++++++++++++++++++++++++++++++++++++++++++++++++++++++++",
"++++++++++++++++++++++++++++++++++++++++++++++++++++++++++++++++"
};
