/* XPM */
static char *E_2[] = {
/* columns rows colors chars-per-pixel */
"64 64 237 2 ",
"   c #3B0202",
".  c #470503",
"X  c #560B05",
"o  c #581605",
"O  c #471512",
"+  c #5A1913",
"@  c #611B07",
"#  c #63330D",
"$  c #6A2918",
"%  c #491F21",
"&  c #592926",
"*  c #53312C",
"=  c #593536",
"-  c #682B23",
";  c #68382C",
":  c #78382A",
">  c #6B3936",
",  c #733D34",
"<  c #773C38",
"1  c #514D1B",
"2  c #575515",
"3  c #65450E",
"4  c #6C430D",
"5  c #70480E",
"6  c #674B15",
"7  c #744911",
"8  c #695816",
"9  c #6D5A1E",
"0  c #725416",
"q  c #725719",
"w  c #656B17",
"e  c #6B6519",
"r  c #6D6B19",
"t  c #71651B",
"y  c #716E1A",
"u  c #6F711A",
"i  c #72751B",
"p  c #5E4F2B",
"a  c #654728",
"s  c #704A2E",
"d  c #6D5727",
"f  c #77453A",
"g  c #7D423C",
"h  c #6B5837",
"j  c #74593A",
"k  c #6D6325",
"l  c #746925",
"z  c #767523",
"x  c #787B21",
"c  c #776938",
"v  c #7D7537",
"b  c #6B4646",
"n  c #794948",
"m  c #6C594B",
"M  c #77564A",
"N  c #694955",
"B  c #794E52",
"V  c #6A5457",
"C  c #785857",
"Z  c #7B565C",
"A  c #796546",
"S  c #786D50",
"D  c #6C5564",
"F  c #755966",
"G  c #7C5D63",
"H  c #796469",
"J  c #7C6471",
"K  c #7E6A7D",
"L  c #85363B",
"P  c #86483C",
"I  c #857033",
"U  c #834D43",
"Y  c #864C48",
"T  c #86524C",
"R  c #814C57",
"E  c #8A5452",
"W  c #895855",
"Q  c #845C5B",
"!  c #8D5C5B",
"~  c #915857",
"^  c #915C5C",
"/  c #83674B",
"(  c #877A4B",
")  c #88655C",
"_  c #8F6F5C",
"`  c #845D63",
"'  c #8A5C64",
"]  c #855C68",
"[  c #955F61",
"{  c #836265",
"}  c #8B6364",
"|  c #866668",
" . c #8B656C",
".. c #8C696D",
"X. c #936364",
"o. c #95656C",
"O. c #9A6768",
"+. c #93696D",
"@. c #8D7A66",
"#. c #937869",
"$. c #836B73",
"%. c #8C6C73",
"&. c #8A6976",
"*. c #836D7B",
"=. c #956B73",
"-. c #986B75",
";. c #936E79",
":. c #8A7579",
">. c #96737D",
",. c #997678",
"<. c #9C747E",
"1. c #A27578",
"2. c #7F8226",
"3. c #938454",
"4. c #A2814F",
"5. c #92856D",
"6. c #A18665",
"7. c #A98A72",
"8. c #A38B7D",
"9. c #7D7185",
"0. c #886D82",
"q. c #8A7787",
"w. c #947482",
"e. c #9A7682",
"r. c #9B7A85",
"t. c #957B8B",
"y. c #987888",
"u. c #9B7C8C",
"i. c #897B92",
"p. c #947E92",
"a. c #9B7D93",
"s. c #907C99",
"d. c #A57883",
"f. c #A37B84",
"g. c #A37C8B",
"h. c #A27E92",
"j. c #9D8789",
"k. c #9C828D",
"l. c #93898D",
"z. c #9D8394",
"x. c #978598",
"c. c #9D859A",
"v. c #9D8A9B",
"b. c #A4818D",
"n. c #A88789",
"m. c #A79188",
"M. c #A28494",
"N. c #AA8494",
"B. c #A28994",
"V. c #AB8A95",
"C. c #A2859A",
"Z. c #AC869A",
"A. c #A48B9C",
"S. c #AA8B9D",
"D. c #B28997",
"F. c #A8949B",
"G. c #B69091",
"H. c #9A8AA4",
"J. c #958FA9",
"K. c #9C92B1",
"L. c #A48DA3",
"P. c #A78BA7",
"I. c #AB8EA2",
"U. c #B28DA4",
"Y. c #A391A5",
"T. c #AB92A5",
"R. c #A594AC",
"E. c #AC95AC",
"W. c #AC9AA8",
"Q. c #AB9AAD",
"!. c #B492A5",
"~. c #B295AC",
"^. c #B49AAC",
"/. c #B999AC",
"(. c #AE9AB3",
"). c #A998B5",
"_. c #B396B1",
"`. c #B49CB3",
"'. c #BA9CB3",
"]. c #B097B8",
"[. c #B49DBB",
"{. c #B99EBA",
"}. c #AEA2A3",
"|. c #B9A7AB",
" X c #B3B0A9",
".X c #B5A1B4",
"XX c #BBA2B5",
"oX c #B5A1BD",
"OX c #BBA3BC",
"+X c #BAABBD",
"@X c #C29BB4",
"#X c #C2A4B5",
"$X c #C2A4BD",
"%X c #C8A7BE",
"&X c #C3B8BF",
"*X c #AE9FC2",
"=X c #ADA5C4",
"-X c #B4A3C2",
";X c #BCA5C3",
":X c #BDA9C4",
">X c #B8A7C8",
",X c #BDABCB",
"<X c #BCB0CC",
"1X c #B9B0D6",
"2X c #C2A6C4",
"3X c #C3AAC4",
"4X c #CBACC6",
"5X c #C4A6CB",
"6X c #C3ACCB",
"7X c #C9ADCA",
"8X c #C4B2CD",
"9X c #CBB2CE",
"0X c #C9BCCD",
"qX c #D3B3CB",
"wX c #C4AED1",
"eX c #CBAFD0",
"rX c #C5B3D4",
"tX c #CBB3D3",
"yX c #CABCD4",
"uX c #C4B4D9",
"iX c #C9B5DA",
"pX c #C6B9DC",
"aX c #CCBCDC",
"sX c #D1B4D4",
"dX c #D5B9DB",
"fX c #D3BBDC",
"gX c #C3BBE3",
"hX c #CBBCE3",
"jX c #D6BEE3",
"kX c #CDC8D9",
"lX c #D8C5DB",
"zX c #CAC3EA",
"xX c #D9C7E6",
"cX c #D5CDF4",
"vX c #E3CFEF",
"bX c #E7D6FA",
"nX c #E3E6F4",
/* pixels */
"i i i i i i i i i i i i i i i i i i i i i i i i i i i i i i i i i i i i i i i i i i i i i i i i i i i i i i i i i i i i i i i i ",
"i i i i i i i i i i i i i i i i i i i i i i i i i i i i i i i i i i i i i i 2.i i i i i i i i i i i i i i i i i i i i i i i i i ",
"i i i i i i i i i i i i i i i i i i i i i i i i i i 2.u i i i i i i i i i i w i i i i i i i i i i i i i i i i i i i i i i i i i ",
"i i i i i i i i i i i i i i i i i i i i i i i i i i i u i i i i i i i i i i i i i i i i i i i i i i i i i i i i i i i i i i i i ",
"i i i i i i i i i i i i i i i i i i i i i i i i i i w i i i i i w 2.i i i i i i i i i i i i i i i i i i i i i i i i i i i i i i ",
"i i i i i i i i i i i i i i i i i i i i i i i i 2.2.2.u i i i i i i i i i i i i i i i i i i i i i i i i i i i i i i i i i i i i ",
"i i i i i i i i i i i i i i i i i i i i i i i i u 2.i 2.i i i i i i i i i i i i i i i i i i i i i i i i i i i i i i i i i i i i ",
"i i i i i i i i i i i i i i i i i i i i i i i i i i w w i i i i i i i i i i i i i i i i i i i i i i i i i i i i i i i i i i i i ",
"i i i i i i i i i i i i i i i i i i i i i i i i i i i i i i i i i i i i i i i i i i i i i i i i i i i i i i i i i i i i i i i i ",
"i i i i i i i i i i 2.i i i i i i i i i i i i i i i i i y i i i i i u i u u i i i i i i i i i i i i i i i i i i i 2.i i i i i i ",
"i i i x 2.2.i i i 2.i i i i i i i i i i i i i i i v q 5 4 5 5 7 7 4 4 4 3 2 i i i i i i i i i i i i i i i i i i i i i i i i i i ",
"i i i i 2.x x i 2.2.i i i i i i i i i i i i i i r 8.(.^.F.~.`.T.}.`.|. XQ.@.2 i i i i i i i i i i i i i i i i i i i i i i i i i ",
"i i i i w x x i  X Xi i i i i i i i i i u u u u e m.yXrX:X6X:X~.h.I.+XtXuX+Xc r i i i i i i i i i i i i i i i i i i i i i i i i ",
"i i i i i w x  X4.4. Xi i i i i i i u u y l 3.5.A 1.,X,XOX;XI.d.>.M.'.2X8XiX7 S 5.3.I y i i i i i i i i i i i i i i i i i i i i ",
"i i i i i i w w  X Xw i i i i i u i v ( 3.5.z.A...O.XX,X'.'.a.e.y.I.'.OX,XsXo | B.G.7.( v z z i i i i i i i i i i i i i i i i i ",
"i i i i i i i u w w i i i i i x v v m.W.+X[.e.f.) [ `.3XXX'.I./.h.U.'.'.3X4X$ X.,.T.OX+Xm.( t i i i i i i i i i i i i i i i i i ",
"i i i i i i i i i i i i i u l I W.B.0X+X+.U f.#Xg.^ U.3XXX`.{.4X9X$X'./.$X2XP {.`.o.Y n.kX_ d l z x i i i i i i i i i i i i i i ",
"i i i i i i i i i i i i w c B.kXnX.XP - +.:X8X+X6X1./.$X.X#X#X#XXX$XXX`.OXU.! uXiXpX5Xd.Y ^ N.-Xj.6.3.i i i i i i i i i i i i i ",
"i i i i i i i i i i i 6 /  XxX:XW W V.T.E.`.^.~.cXO.@XvXdX7XtXsXyXtXsXxXqX^ c.W.E.`.:X6X7X!.U +.+XkX}.( 8 i i i i i i i i i i i ",
"i i i i i i i i i u t S |.lX.XE +.^..X[.^.|.%XlXU.= t.6X^.t.H.x.c.p.Y.uX2XY 5X6X`.E.`.`.].3X`.! ) |.xXF.9 r u i i i i i i i i i ",
"i i i i i i i i z ( m..X~.d.+.r.~.;XE./.3X9X7X-Xs.& b &.F > > > < > n w.a.g >X,X;XOX{.T.c.).,X~.+.) Z.,XB.5.l i i i i i i i i i ",
"i i i i i i i u k }.pXuX;.U e.,XoXW.`.3X3X_.a.J D - - > < < < < g g g n n > w.y.Y.[.OX'.E.A.E.,X'.' n ~.cX0X@.z u i i 2.i i i i ",
"i i i i i i u l A zXgXI.+.b.>X].E.'.tX2Xu.N = > - f Y P W h.M.k.z.A.M...> $ Y }  .*.x.[.;X~.S.C.[.~.o.) 0XcX8XA r i 2.i i i i i ",
"i i i i i i w c .XzXE.Y S.zXOX[.`.sXtX0.= % + : ,.B.R.(.P.a.c.v.A.P.].-XL.N  .C.' g B 0.).dX(.I.L.-X*XX.< hXcXi.8 2.2.i i i i i ",
"i i i i u w 8 / rX>XP 1.:XhXjXjXbXbXF O X n Y.(.A.k.k.q.>.e.u.k.z.B.A.u.y.-XW.x.(.T.E $ N =XxXhX,X:XrX`.$ S.zXV.:.w i r i i i i ",
"i i u w @.m.,.) ! E : B B ' d.h.jX&.% & ) A.M.r.T.Q.(.Q.)._..X(.-X[.>.w.>XoX`.W.z.v.T.j., * eXg.} ' }  .W P W X.#.z.F.m.8 i i i ",
"i i u 5.0XkX,X[._.E.T.S.L.c.u.g.y.& -  .Y.A.r.u.>.Z B C Z F Q ` { { M B  .{ Z w.M.c.L.(.N.@ ` {.~.N.!.].'.~.~.{.:X,XiX0X0 i i i ",
"i i w 8.8X8X-X;XoX-X[.(.(.E._.,Xh.O ] H.c.t.M.u.b Z ........&.%.%.%.:.%.>.r.%.Z t.c.c.R.).X.& 7X6X_._.[..XOX2X:X:X,XrXyX0 i i i ",
"i i y 8.:XoXI.I.N.T.E.E.E.I.oXhX] & p.L.t.w.k.A.f w.A.B.B.B.B.B.A.A.A.C.C.E.Y.Q &.k.c.c.R.[.+ I.:X_.I.E.~.'.N.S.!.'.:X9X0 y i i ",
"i i y 8.8X,XS.e.h.;.E._.E.Y.+XtX. b x.C.z.t.w.y.C c.A.z.j.z.M.B.B.A.C.C.B.A.E.| Q y.A.z.C.=X> o._.`.I._.'.OXo.g.g.S.wXtX0 i i i ",
"i i r 8.6X1Xa.] _.B ~.'.E._.9XdX. $.L.c.k.v.h.> C z.L.c.z.k.z.B.c.M.C.B.z.B.S.| ..u.c.a.z.R.$.~ U.;X~.'.'.5X+.N. .-.aXyX0 y i i ",
"i i r 8.8XwX/.<.g h.;X{.~._.6XdX. ` H.L.k.A.].&.n x.C.A.T.I.M.z.z.z.B.B.b.z.A.] y.C.c.a.c.E.` ^ `.5X~.~./.rXg U D.7XsX9X0 i i i ",
"i i y 8.rX6X'.3X6X6X'.`./.[.tXlX. H Y.H.z.z.Y.E.C M.S.F.W.S.k.c.M.A.A.C.B.M.Y.} k.A.c.z.C.E.{ [ 2X6XE.~.~.{.wX6X9XrXrX9X0 y i i ",
"i i y 8.fXrX/.'.OX{.{.3X9X3X$X'.. G Y.L.z.A.c.A.Z c.L.A.C.A.C.S.A.A.C.C.A.F.~.| c.A.z.p.a.Y.n Y U.wXtXiXaXeX4X3X~.^.uXfX0 y i i ",
"i i y m.xXvXiXsXtXdXdXC.w.u.g.e.o > R.(.T.T.T.z.] B.A.c.M.C.C.A.S.B.A.S.A.T.~. .z.A.x.k.s.K.- ' y.u.d.e.N._.dXsX#X$XvXlX0 y i i ",
"i i y @.&X<XL.c.C.R.e.g.h.N.S.S.1., c.(.E.T.Y.z.| L.T.T.Y.T.T.T.T.T.W.^.~.(.`...z.A.C.A.H. .B P.I.h.d.=.Y :.z.a.e.v.*X`.6 i i i ",
"i i r / J.q.V C Z F + -.7XwX-X>XpX<.;.c.E.E.L.z.` M.L.I.S.A.S.A.I.A.T.I.T.L.A. .a.Y.E.R.e.< I.OX_.`.;XU.- F n m C J 9.x.3 y i i ",
"i i e @.J.J X.G.,.O., < ~.aXE.U.~.rXg.+.z.E.E.c. . .w.e.>.<.w.w.w.<.>.;.;.;.....c.R.Y.e.f =.;X~.S.T.;XP.+ n.f.m.N.*.K *X6 i i i ",
"i i y @.H f O.nX>X-XoX= 0.eX;X~.E.`.aXZ.E +.<X).*Xc.e.w.e.u.u.r.b.r...Q } k.a.E.*XC.T : ! gX;X]._.rX[.> : zXuXbXxX=.- l.t i i i ",
"i i i u r 3 ) gX9XP.<X+.& &.jXwX[.~.[.7X'.X.n A.=X>X-X`.Q.(.`.(.(.`.[.T.M.-X<X=X` P ;.oX-XOX~._.aX:XV * +X-X.XxXQ.m 2 l i i i i ",
"i i i i u t d :.vX(.>X,XW b K.eX2X;X`.[.OX[.f.Y L ~ A.).R.R.W.W.Q.Q.Q.[.>XR.g : O.~.,X;X`._.{.jXoXD * X.8X-XvXQ.m 1 u i i i i i ",
"i i i i i u t ) 1XzXC.Z.Y + N H.Q sX:X/.`.XX.XS.b.+.T W ^ ) X.[ ! ! ) } .. .,.U.OX2X;X{.{.6XxX2XD & > ' >.tXcX;.a 2 i i i i i i ",
"i i i i i i i I q.[.!.`.h. .R b n 3XiX6XOX`.`.XX6Xb.X.d.D.N.N.b.g.g.g.f.X.T {.wX,X{.{.5XdXhXz.N & R g.N.z.'.c.m 9 u i i i i i i ",
"i i i i i i y k p ] 3XhXhXwXZ.T U ,.).,X9X6XOXOX+Xd.!.5XaXtX6X3X2X:X,X:XU.-.E.OX5X5XsX7X{.t.& & ' T.,X6X:X' f d r u i i i i i i ",
"i i i i i i i r 2 a K.>X6X,X;X_.[ , n 0.E.6X6XaX2X1./.;X~./.~././.~.~.`.;X~.[ uXjX6X'.u.b O ; 1.+X6X:X6XH.= s t i i i i i i i i ",
"i i i i i i i i u 2 H J.,XeX2XwXcX@XL $ > G j.I.7Xd./.$X/././.Z.S.I.~.~.'.2X[ 4XV.Z = % + M W.5X$X2X:Xz.p A r i i i i i i i i i ",
"i i i i i i i i i i 1 S q.K.hXjXbXeX{.Z.U X X ; . X.3X6X/.$X@Xd.g.~.XXXX;XiXX # o   = d.7XI.`.7XaXY.D b d t i i i i i i i i i i ",
"i i i i i i i i i i u p h $.K.=X_.Z.6XuX;X).w.$ @ X.4X9XXXXXN.O.-.b.'.'.2XiX@ @ W c.+XaXbXxXsX[.i.H b 3 r i i i i i i i i i i i ",
"i i i i i i i i i i i u r d m :.F _.,XuXjXjX,X^.z.d.qXjX4X4X%X4X4X4X3X2XqXjX; l.8XxXcXxX2X-XQ H m h 9 r i i i i i i i i i i i i ",
"i i i i i i i i i i i i i r k h a t.x.K.).).,XhXW.1.7XdX2X2X2X7X7X$X$X3XdXsX$ A.aXOXS.C.$.F a h k k y i i i i i i i i i i i i i ",
"i i i i i i i i i i i i i i u w 8 c m H 9.*.x.K. .U S.].a.a.u.p.u.w.t.c._.P.o } F.;.T A h a e e y i i i i i i i i i i i i i i i ",
"i i i i i i i i i i i i i i i i i u 8 j M m C D ; : q.i.J J J J J J F F 0.s.. s M j j j d e i i i i i i i i i i i i i i i i i i ",
"i i i i i i i i i i i i i i i i i i i u w 8 3 # # Q K.H.q.q.i.i.i.x.x.i.J.J.@ # # 2 8 y i i i i i i i i i i i i i i i i i i i i ",
"i i i i i i i i i i i i i i i i i i i i i i i i w 5.q.) M { $.$.J $.$.J *.t.0 u i i i i i i i i i i i i i i i i i i i i i i i i ",
"i i i i i i i i i 2.2.i i i i i i i i i i i i i u l k 9 q 9 9 9 9 9 d 9 9 k y i i i i i i i i i i i i i i i i i 2.2.2.i i i i i ",
"i i i x i i i x x 2.i i i i i i i i i i i i i i i u i r i i y y y y y y y y i i i i i i i i i i i i i i i i i i i 2.i i i i i i ",
"i i i i 2.2.i 2.x w i i i i i i i i i i i i i i i i i i i i i i i i i i i i i i i i i i i i i i i i i i i i i 2.2.w i i i i i i ",
"i i i i 2.2.i w w i i i i i i i i i i i 2.i i i i i i i i i i i i i i i i i i i i i i i i i i i i i i i i i i w w i i i i i i i ",
"i i i i w i 2.i i i i i i i i i i i i i i i i i i i i i i i i i i i i i i i i i i i i i i i i i i i i i i i i i i i i i i i i i ",
"i i i i i w i i i i i i i i i i i i i i i i i i i i i i i i i i i i i i i i i i i i i i i i i i i i i i i i i i i i i i i i i i ",
"i i i i i i i i i i i i i i i i i i i i i i i i i i i i i i i i i i i i i i i i i i i i i i i i i i i i i i i i i i i i i i i i ",
"i i i i i i i i i i i i i i i i i i i i i i i i i i i i i i i i i i i i i i i i i i i i i i i i i i i i i i i i i i i i i i i i ",
"i i i i i i i i i i i i i i i i i i i i i i i i i i i i i i i i i i i i i i i i i i i i i i i i i i i i i i i i i i i i i i i i ",
"i i i i i i i i i i i i i i i i i i i i i i i i i i i i i i i i i i i i i i i i i i i i i i i i i i i i i i i i i i i i i i i i "
};
