/* XPM */
static char *enemz[] = {
/* columns rows colors chars-per-pixel */
"64 64 15 1 ",
"  c #2F2F2E",
". c gray24",
"X c #636917",
"o c #656C17",
"O c #72751B",
"+ c #787B21",
"@ c #A2783C",
"# c #7F8226",
"$ c #A2814F",
"% c #BD9842",
"& c #C6A740",
"* c #9094A3",
"= c #9CA8AD",
"- c #B3B0A9",
"; c #BBC3E1",
/* pixels */
"OOOOOOOOOOOOOOOOOOOOOOOOOOOOOOOOOOOOOOOOOOOOOOOOOOOOOOOOOOOOOOOO",
"OOOOOOOOOOOOOOOOOOOOOOOOOOOOOOOOOOOOOOOOOOOOOOOOOOOOOOOOOOOOOOOO",
"OOOOOOOOOOOOOOOOOOOOOOOOOOOOOOOOOOOOOOOOOOOOOOOOOOOOOOOOOOOOOOOO",
"OOOOOOOOOOOOOOOOOOOOOOOOOOOOOOOOOOOOOOOOOOOOOOOOOOOOOOOOOOOOOOOO",
"OOOOOOOOOOOOOOOOOOOOOOOOOOOOOOOOOOOOOOOOOOOOOOOOOOOOOOOOOOOOOOOO",
"OOOOOOOOOOOOOOOOOOOOOOOO#++OOOOOOOOOOOOOOOOOOOOOOOOOOOOOOOOOOOOO",
"OOOOOOOOOOOOOOOOOOOOOOOOO+++OOOOOOOOOOOOOOOOOOOOOOOOOOOOOOOOOOOO",
"OOOOOOOOOOOOOOOOOOOOOOOOOOooOOOOOOOOOOOOOOOOOOOOOOOOOOOOOOOOOOOO",
"OOOOOOOOOOOOOOOOOOOOOOOOOOOOOOOOOOOOOOOOOOOOOOOOOOOOOOOOOOOOOOOO",
"OOOOOOOOOO#OOOOOOOOOOOOOOOOOOOOOOOOOOOOOOOOOOOOOOOOOOOOOOOOOOOOO",
"OOO+##OOO#OOOOOOOOOOOOOOOOOOOOOOOOOOOOOOOOOOOOOOOOOOOOOOOOOOOOOO",
"OOOO#++O##OOOOOOOOOOOOOOOOOOOOOOOOOOOOOOOOOOOOOOOOOOOOOOOOOOOOOO",
"OOOOo++O--OOOOOOOOOOOOOOOOOOOOOOOOOOOOOOOOOOOOOOOOOOOOOOOOOOOOOO",
"OOOOOo+-$$-OOOOOOOOOOOOOOOOOOOOOOOOOOOOOOOOOOOOOOOOOOOOOOOOOOOOO",
"OOOOOOoX--XOOOOOOOOOOOOOOOOOOOOOOOOOOOOOOOOOOOOOOOOOOOOOOOOOOOOO",
"OOOOOOOOXXOOOOOOOOOOOOOOOOOOOOOOOOOOOOOOOOOO++OOOOOOOOOOOOOOOOOO",
"OOOOOOOOOOOOOOOOOOOOOOOOOOOOOOOOOOOOOOOOOOO#+OOOOOOOOOOOOOOOOOOO",
"OOOOOOOOOOOOOOOOOOOOOOOOOOOOOOOOOOOOOOOOOO++oOOOOOOOOOOOOOOOOOOO",
"OOOOOOOOOOOOOOOOOOOO;OOOOOOOOO;OOOOOOO##;O++oOOOOOOOOOOOOOOOOOOO",
"OOOOOOOOOOOOOOOOOOOO;OOOOOOOOO;OOOOOOOO#;+o+oOOOOOOOOOOOOOOOOOOO",
"OOOOOOOOOOOOOOOOOOOO;*OOOOOOOO;*OOOOOOOo;*ooOOOOOOOOOOOOOOOOOOOO",
"OOOOOOOOOOOOOOOOOOO.;*.O--OOO.;*.OOOOOO.;*.OOOOOOOOOOOOOOOO#OOOO",
"OOOOOOOOOOOOOOOOOO. ;* .$-OO. ;* .OOOO. ;* .OOOOOOOO+##OOO#OOOOO",
"OOOOOOOOOOOOOOOOOO  ;*  -XOO  ;*  OOOO  ;*  OOOOOOOOO#==O##OOOOO",
"OOOOOOOOOOOOOOOOOO$ ;* XXOOOO ;* OOOOOO ;* OOOOOOOOOO=$$=++OOOOO",
"OOOOOOOOOOOOOOOOOOXXOOOOOOOOOOOOOOOOOOOOOOOOOOOOOOOOOX==X--OOOOO",
"OOOOOOOOOOOOOOOOOOOOOOOOOOOOOOOOOOOOOOOOOOOOOOOOOOOOOOXXO$-OOOOO",
"OOOOOOOOOOOOOOOOOOOOOOOOOOOOOOOOOOOOOOOOOOOOOOOOOOOOOOOOOXXOOOOO",
"OOOOOOOOOOOOOOOOOOOO;OOOOOOOOO;OOOOOOOOO;OOOOOOOOOOOOOOOOOOOOOOO",
"OOOOOOOOOOOOOOOOOOOO;OOOOOOOOO;OOOOOOOOO;OOOOOOOOOOOOOOOOOOOOOOO",
"OOOOOOOOOOOOOOOOOOOO;*OOOOOOOO;*OOOOOOOO;*OOOOOOOOOOOOOOOOOOOOOO",
"OOOOOOOOOOOOOOOOOOO.;*.OOOOOO.;*.OOOOOO.;*.OOOOOOOOOOOOOOOOOOOOO",
"OOOOOOOOOOOOOOOOOO. ;* .OOOO. ;* .OOOO. ;* .OOOOOOOOOOOOOOOOOOOO",
"OOOOOOOOOOOOOOOOOO  ;*  OOOO  ;*  OOOO  ;*  OOOOOOOOOOOOOOOOOOOO",
"OOOOOOOOOOOOOOOOOOO ;* OOOOOO ;* OOOOOO ;* OOOOOOOOOOOOOOOOOOOOO",
"OOOOOOOOOOOOOOOOOOOOOOOOOOOOOOOOOOOOOOOOOOOOOOOOOOOOOOOOOOOOOOOO",
"OOOOOOOOOOOOOOOOOOOOOOOOOOOOOOOOOOOOOOOOOOOOOOOOOOOOOOOOOOOOOOOO",
"OOOOOOOOOOOOOOOOOOOOOOOOOOOOOOOOOOOOOOOOOOOOOOOOOOOOOOOOOOOOOOOO",
"OOOOOOOOOOOOOOOOOOOO;O##OOOOOO;OOOOOOOOO;OOOOOOOOOOOOOOOOOOOOOOO",
"OOOOOOOOOOOOOOOOOOOO;OO#+OOOO#;OOOOOOOOO;OOOOOOOOOOOOOOOOOOOOOOO",
"OOOOOOOOOOOOOOOOOOOO;*O+++O+#O;*OOOOOOOO;*OOOOOOOOOOOOOOOOOOOOOO",
"OOOOOOOOOOOOOOOOOOO.;*.o++++o.;*.OOOOOO.;*.OOOOOOOOOOOOOOOOOOOOO",
"OOOOOOOOOOOOOOOOOO. ;* .%o++. ;* .OOOO. ;* .OOOOOOOOOOOOOOOOOOOO",
"OOOOOOOOOOOOOOOOOO  ;*  @%+o  ;*  OOOO  ;*  OOOOOOOOOOOOOOOOOOOO",
"OOOOOOOOOOOOOOOOOOO ;* %%XO&& ;* OOOOOO ;* OOOOOOOOOOOOOOOOOOOOO",
"OOOOOOOOOOOOOOOOOOOO&&OXXOO@&OOOOOOOOOOO#+OOOOOOOOOOOOOOOOOOOOOO",
"OOOOOOOOOOOOOOOOOOO&@@&OOOOXXOOOOOO#+OO+#oOOOOOOOOOOOOOOOOOOOOOO",
"OOOOOOOOOOOOOOOOOOOX&&XOOOOOOOOOOOOo++O++OOOOOOOOOOOOOOOOOOOOOOO",
"OOOOOOOOOOOOOOOOOOOOXXOOOOOOOOOOOOOOo+++oOOOOOOOOOOOOOOOOOOOOOOO",
"OOOOOOOOOOOOOOOOOOOOOOOOOOOOOOOOOOOOo++oOOOOOOOOOOOOOOOOOOOOOOOO",
"OOOOOOOOOOOOOOOOOOOOOOOOOOOOOOOOOOOOOo+OOOOOOOOOOOOOOOOOOOOOOOOO",
"OOOOOOOOOOOOOOOOOOOOOOOOOOOOOOOOOOOOOOOOOOOOOOOOOOOOOOOOOOOOOOOO",
"OOOOOOOOOOOOOOOOOOOOOOOOOOOOOOOOOOOOOOOOOOOOOOOOOOOOOOOOOOOOOOOO",
"OOOOOOOOOOOOOOOOOOOOOOOOOOOOOOOOOOOOOOOOOOOOOOOOOOOOOOOOOOOOOOOO",
"OOOOOOOOO##OOOOOOOOOOOOOOOOOOOOOOOOOOOOOOOOOOOOOOOOOOOOO+##OOOOO",
"OOO+OOO++#OOOOOOOOOOOOOOOOOOOOOOOOOOOOOOOOOOOOOOOOOOOOO++#OOOOOO",
"OOOO##O++oOOOOOOOOOOOOOOOOOOOOOOOOOOOOOOOOOOOOOOOOOOOOO++oOOOOOO",
"OOOO#++ooOOOOOOOOOOOOOOOOOOOOOOOOOOOOOOOOOOOOOOOOOOOOOOooOOOOOOO",
"OOOOo++OOOOOOOOOOOOOOOOOOOOOOOOOOOOOOOOOOOOOOOOOOOOOOOOOOOOOOOOO",
"OOOOOoOOOOOOOOOOOOOOOOOOOOOOOOOOOOOOOOOOOOOOOOOOOOOOOOOOOOOOOOOO",
"OOOOOOOOOOOOOOOOOOOOOOOOOOOOOOOOOOOOOOOOOOOOOOOOOOOOOOOOOOOOOOOO",
"OOOOOOOOOOOOOOOOOOOOOOOOOOOOOOOOOOOOOOOOOOOOOOOOOOOOOOOOOOOOOOOO",
"OOOOOOOOOOOOOOOOOOOOOOOOOOOOOOOOOOOOOOOOOOOOOOOOOOOOOOOOOOOOOOOO",
"OOOOOOOOOOOOOOOOOOOOOOOOOOOOOOOOOOOOOOOOOOOOOOOOOOOOOOOOOOOOOOOO"
};
