/* XPM */
static char *seq_1[] = {
/* columns rows colors chars-per-pixel */
"64 64 21 1 ",
"  c black",
". c #202021",
"X c #223A30",
"o c #3A3B3D",
"O c #636917",
"+ c #656C17",
"@ c #72751B",
"# c #63492C",
"$ c #787B21",
"% c #3A5941",
"& c #5F6367",
"* c #836B3F",
"= c #A2783C",
"- c #7F8226",
"; c #A2814F",
": c #BD9842",
"> c #C6A740",
", c #869598",
"< c #9CA8AD",
"1 c #B3B0A9",
"2 c #ACC2C3",
/* pixels */
"@@@@@@@@@@@@@@@@@@@@@@@@@@@@@@@@@@@@@@@@@@@@@@@@@@@@@@@@@@@@@@@@",
"@@@@@@@@@@@@@@@@@@@@@@@@@@@@@@@@@@@@@@@@@@@@@@@@@@@@@@@@@@@@@@@@",
"@@@@@@@@@@@@@@@@@@@@@@@@@@@@@@@@@@@@@@@@@@@@@@@@@@@@@@@@@@@@@@@@",
"@@@@@@@@@@@@@@@@@@@@@@@@@@@@@@@@@@@@@@@@@@@@@@@@@@@@@@@@@@@@@@@@",
"@@@@@@@@@@@@@@@@@@@@@@@@@@@@@@@@@@@@@@@@@@@@@@@@@@@@@@@@@@@@@@@@",
"@@@@@@@@@@@@@@@@@@@@@@@@-$$@@@@@@@@@@@@@@@@@@@@@@@@@@@@@@@@@@@@@",
"@@@@@@@@@@@@@@@@@@@@@@@@@$$$@      @@@@@@@@@@@@@@@@@@@@@@@@@@@@@",
"@@@@@@@@@@@@@@@@@@@@@@@@@@++ ,,,,,, @@@@@@@@@@@@@@@@@@@@@@@@@@@@",
"@@@@@@@@@@@@@@@@@@@@@@@@@@@ ,222222, @@@@@@@@@@@@@@@@@@@@@@@@@@@",
"@@@@@@@@@@-@@@@@@@@@@@@@@@@ ,222222& @@@@@@@@@@@@@@@@@@@@@@@@@@@",
"@@@$--@@@-@@@@@@@@@@@@@@@@@ &,,,,,&o @@@@@@@@@@@@@@@@@@@@@@@@@@@",
"@@@@-$$@--@@@@@@@@@@@@@@@@@ &&&&&ooo @@@@@@@@@@@@@@@@@@@@@@@@@@@",
"@@@@+$$@11@@@@@@@@@@@@@@@@@ &&&&oooo @@   @@@@@@@@@@@@@@@@@@@@@@",
"@@@@@+$1;;1@@@@@@@@@@@@@@@@ &&&&oooo @@ , @@@@@@@@@@@@@@@@@@@@@@",
"@@@@@@+O11O@@@@@@@@@@@@@@@@ &&&&o  o @ X  @@@@@@@@@@@@@@@@@@@@@@",
"@@@@@@@@OO@@@@@@@@@@@@@@@@@ &&&oo ,   X @@@@$$@@@@@@@@@@@@@@@@@@",
"@@@@@@@@@@@@@@@@@@@@@@@@@@@@ &&ooo 2 X @@@@-$@@@@@@@@@@@@@@@@@@@",
"@@@@@@@@@@@@@@@@@@@@@@@@@@  &     2,& @@@@$$+@@@@@@@@@@@@@@@@@@@",
"@@@@@@@@@@@@@@@@@@@@@@@@@ %,,&oo 2,&,, -$@$$+@@@@@@@@@@@@@@@@@@@",
"@@@@@@@@@@@@@@@@@@@@@@@@@ %%,,& 2,&,, , $$+$+@@@@@@@@@@@@@@@@@@@",
"@@@@@@@@@@@@@@@@@@@@11@@ %%% , 2,&,, X  $$++@@@@@@@@@@@@@@@@@@@@",
"@@@@@@@@@@@@@@@@@@@1;;1@ XX    ,&,, &X @++@@@@@@@@@@@@@@@@@-@@@@",
"@@@@@@@@@@@@@@@@@@@O11O ,,,  ** ,,  o& @@@@@@@@@@@@@$--@@@-@@@@@",
"@@@@@@@@@@@@@@@@@@11OO@ ,&& #***  & ooo @@@@@@@@@@@@@-<<@--@@@@@",
"@@@@@@@@@@@@@@@@@@;1@@@ &o  ###* &&  oo @@@@@@@@@@@@@<;;<$$@@@@@",
"@@@@@@@@@@@@@@@@@@OO@@@@  2, ## &&o  .. @@@@@@@@@@@@@O<<O11@@@@@",
"@@@@@@@@@@@@@@@@@@@@@@@@ 2,&,  &oo   .. @@@@@@@@@@@@@@OO@;1@@@@@",
"@@@@@@@@@@@@@@@@@@@@@@@ 2,&,, oo  X @  @@@@@@@@@@@@@@@@@@OO@@@@@",
"@@@@@@@@@@@@@@@@@@@@@@ 2,&,, %  XXX @@@@@@@@@@@@@@@@@@@@@@@@@@@@",
"@@@@@@@@@@@@@@@@@@@@@ 2,&,,  %%XXXX @@@@@@@@@@@@@@@@@@@@@@@@@@@@",
"@@@@@@@@@@@@@@@@@@@@ 2,&,, @ o%%    @@@@@@@@@@@@@@@@@@@@@@@@@@@@",
"@@@@@@@@@@@@@@@@@@@@ 2,,, @ ooo  ... @@@@@@@@@@@@@@@@@@@@@@@@@@@",
"@@@@@@@@@@@@@@@@@@@@ 2,, @@ ...  ooo @@@@@@@@@@@@@@@@@@@@@@@@@@@",
"@@@@@@@@@@@@@@@@@@@@    @@@ ...  ,o, @@@@@@@@@@@@@@@@@@@@@@@@@@@",
"@@@@@@@@@@@@@@@@@@@@@@@@@@@@   @@ , @@@@@@@@@@@@@@@@@@@@@@@@@@@@",
"@@@@@@@@@@@@@@@@@@@@@@@@@@@@@@@@@@ @@@@@@@@@@@@@@@@@@@@@@@@@@@@@",
"@@@@@@@@@@@@@@@@@@@@@@@@@@@@@@@@@@@@@@@@@@@@@@@@@@@@@@@@@@@@@@@@",
"@@@@@@@@@@@@@@@@@@@@@@@@@@@@@@@@@@@@@@@@@@@@@@@@@@@@@@@@@@@@@@@@",
"@@@@@@@@@@@@@@@@@@@@@@--@@@@@@@@@@@@@@@@@@@@@@@@@@@@@@@@@@@@@@@@",
"@@@@@@@@@@@@@@@@@@@@@@@-$@@@@-@@@@@@@@@@@@@@@@@@@@@@@@@@@@@@@@@@",
"@@@@@@@@@@@@@@@@@@@@@@@$$$@$-@@@@@@@@@@@@@@@@@@@@@@@@@@@@@@@@@@@",
"@@@@@@@@@@@@@@@@@@@@-$$+$$$$+@@@@@@@@@@@@@@@@@@@@@@@@@@@@@@@@@@@",
"@@@@@@@@@@@@@@@@@@@@@$$::+$$+@@@@@@@@@@@@@@@@@@@@@@@@@@@@@@@@@@@",
"@@@@@@@@@@@@@@@@@@@@@+:==:$+@@@@@@@@@@@@@@@@@@@@@@@@@@@@@@@@@@@@",
"@@@@@@@@@@@@@@@@@@@@@@O::O@>>@@@@@@@@@@@@@@@@@@@@@@@@@@@@@@@@@@@",
"@@@@@@@@@@@@@@@@@@@@>>@OO@@=>@@@@@@@@@@@-$@@@@@@@@@@@@@@@@@@@@@@",
"@@@@@@@@@@@@@@@@@@@>==>@@@@OO@@@@@@-$@@$-+@@@@@@@@@@@@@@@@@@@@@@",
"@@@@@@@@@@@@@@@@@@@O>>O@@@@@@@@@@@@+$$@$$@@@@@@@@@@@@@@@@@@@@@@@",
"@@@@@@@@@@@@@@@@@@@@OO@@@@@@@@@@@@@@+$$$+@@@@@@@@@@@@@@@@@@@@@@@",
"@@@@@@@@@@@@@@@@@@@@@@@@@@@@@@@@@@@@+$$+@@@@@@@@@@@@@@@@@@@@@@@@",
"@@@@@@@@@@@@@@@@@@@@@@@@@@@@@@@@@@@@@+$@@@@@@@@@@@@@@@@@@@@@@@@@",
"@@@@@@@@@@@@@@@@@@@@@@@@@@@@@@@@@@@@@@@@@@@@@@@@@@@@@@@@@@@@@@@@",
"@@@@@@@@@@@@@@@@@@@@@@@@@@@@@@@@@@@@@@@@@@@@@@@@@@@@@@@@@@@@@@@@",
"@@@@@@@@@@@@@@@@@@@@@@@@@@@@@@@@@@@@@@@@@@@@@@@@@@@@@@@@@@@@@@@@",
"@@@@@@@@@--@@@@@@@@@@@@@@@@@@@@@@@@@@@@@@@@@@@@@@@@@@@@@$--@@@@@",
"@@@$@@@$$-@@@@@@@@@@@@@@@@@@@@@@@@@@@@@@@@@@@@@@@@@@@@@$$-@@@@@@",
"@@@@--@$$+@@@@@@@@@@@@@@@@@@@@@@@@@@@@@@@@@@@@@@@@@@@@@$$+@@@@@@",
"@@@@-$$++@@@@@@@@@@@@@@@@@@@@@@@@@@@@@@@@@@@@@@@@@@@@@@++@@@@@@@",
"@@@@+$$@@@@@@@@@@@@@@@@@@@@@@@@@@@@@@@@@@@@@@@@@@@@@@@@@@@@@@@@@",
"@@@@@+@@@@@@@@@@@@@@@@@@@@@@@@@@@@@@@@@@@@@@@@@@@@@@@@@@@@@@@@@@",
"@@@@@@@@@@@@@@@@@@@@@@@@@@@@@@@@@@@@@@@@@@@@@@@@@@@@@@@@@@@@@@@@",
"@@@@@@@@@@@@@@@@@@@@@@@@@@@@@@@@@@@@@@@@@@@@@@@@@@@@@@@@@@@@@@@@",
"@@@@@@@@@@@@@@@@@@@@@@@@@@@@@@@@@@@@@@@@@@@@@@@@@@@@@@@@@@@@@@@@",
"@@@@@@@@@@@@@@@@@@@@@@@@@@@@@@@@@@@@@@@@@@@@@@@@@@@@@@@@@@@@@@@@"
};
