/* XPM */
static char *seq_2[] = {
/* columns rows colors chars-per-pixel */
"64 64 20 1 ",
"  c black",
". c #223A30",
"X c #3A3B3D",
"o c #636917",
"O c #656C17",
"+ c #72751B",
"@ c #63492C",
"# c #787B21",
"$ c #3A5941",
"% c #5F6367",
"& c #836B3F",
"* c #A2783C",
"= c #7F8226",
"- c #A2814F",
"; c #BD9842",
": c #C6A740",
"> c #869598",
", c #9CA8AD",
"< c #B3B0A9",
"1 c #ACC2C3",
/* pixels */
"++++++++++++++++++++++++++++      ++++++++++++++++++++++++++++++",
"+++++++++++++++++++++++++++ >>>>>> +++++++++++++++++++++++++++++",
"++++++++++++++++++++++++++ >111111> ++++++++++++++++++++++++++++",
"++++++++++++++++++++++++++ >111111% ++++++++++++++++++++++++++++",
"++++++++++++++++++++++++++ %>>>>>%X ++++++++++++++++++++++++++++",
"++++++++++++++++++++++++=# %%%%%XXX ++++++++++++++++++++++++++++",
"+++++++++++++++++++++++++# %%%%XXXX ++++++++++++++++++++++++++++",
"++++++++++++++++++++++++++ %%%%XXXX +++   ++++++++++++++++++++++",
"++++++++++++++++++++++++++ %%%%XXXX +++ > ++++++++++++++++++++++",
"++++++++++=+++++++++++++++ %%%XXX   ++ .  ++++++++++++++++++++++",
"+++#==+++=+++++++++++++++++ %%XXX > + . ++++++++++++++++++++++++",
"++++=##+==++++++++++++++++ %       1 . +++++++++++++++++++++++++",
"++++O##+<<+++++++++++++++ >>%XXXX 1>% ++++++++++++++++++++++++++",
"+++++O#<--<++++++++++++++ >>>%%% 1>%>> +++++++++++++++++++++++++",
"++++++Oo<<o+++++++++++++ $$>>>> 1>%>> > ++++++++++++++++++++++++",
"++++++++oo++++++++++++++ $$ >> 1>%>>    ++++##++++++++++++++++++",
"++++++++++++++++++++++++ $1 >  >%>> . +++++=#+++++++++++++++++++",
"++++++++++++++++++++++++ 1>  && >> %> ++++##O+++++++++++++++++++",
"++++++++++++++++++++++++ >> @&&&   %% ==#+##O+++++++++++++++++++",
"++++++++++++++++++++++++ >  @@@& % %% +=##O#O+++++++++++++++++++",
"++++++++++++++++++++<<+ > 1> @@ %X X%% O##OO++++++++++++++++++++",
"+++++++++++++++++++<--<  1>%>  XX  XX% +OO+++++++++++++++++=++++",
"+++++++++++++++++++o<<o 1>%>>    . XXX +++++++++++++#==+++=+++++",
"++++++++++++++++++<<oo 1>%>> $$...    +++++++++++++++=,,+==+++++",
"++++++++++++++++++-<+ 1>%>> $$.... ++++++++++++++++++,--,##+++++",
"++++++++++++++++++oo 1>%>>  $.  .. ++++++++++++++++++o,,o<<+++++",
"++++++++++++++++++++ 1>>>  $$    .. ++++++++++++++++++oo+-<+++++",
"++++++++++++++++++++ 1>> + $% ++ %. +++++++++++++++++++++oo+++++",
"++++++++++++++++++++    ++ %% ++ %% ++++++++++++++++++++++++++++",
"+++++++++++++++++++++++++ %%X ++ X%% +++++++++++++++++++++++++++",
"+++++++++++++++++++++++++ XXX ++ XXX +++++++++++++++++++++++++++",
"+++++++++++++++++++++++++     ++     +++++++++++++++++++++++++++",
"++++++++++++++++++++++++++++++++++++++++++++++++++++++++++++++++",
"++++++++++++++++++++++++++++++++++++++++++++++++++++++++++++++++",
"++++++++++++++++++++++++++++++++++++++++++++++++++++++++++++++++",
"++++++++++++++++++++++++++++++++++++++++++++++++++++++++++++++++",
"++++++++++++++++++++++++++++++++++++++++++++++++++++++++++++++++",
"++++++++++++++++++++++++++++++++++++++++++++++++++++++++++++++++",
"++++++++++++++++++++++==++++++++++++++++++++++++++++++++++++++++",
"+++++++++++++++++++++++=#++++=++++++++++++++++++++++++++++++++++",
"+++++++++++++++++++++++###+#=+++++++++++++++++++++++++++++++++++",
"++++++++++++++++++++=##O####O+++++++++++++++++++++++++++++++++++",
"+++++++++++++++++++++##;;O##O+++++++++++++++++++++++++++++++++++",
"+++++++++++++++++++++O;**;#O++++++++++++++++++++++++++++++++++++",
"++++++++++++++++++++++o;;o+::+++++++++++++++++++++++++++++++++++",
"++++++++++++++++++++::+oo++*:+++++++++++=#++++++++++++++++++++++",
"+++++++++++++++++++:**:++++oo++++++=#++#=O++++++++++++++++++++++",
"+++++++++++++++++++o::o++++++++++++O##+##+++++++++++++++++++++++",
"++++++++++++++++++++oo++++++++++++++O###O+++++++++++++++++++++++",
"++++++++++++++++++++++++++++++++++++O##O++++++++++++++++++++++++",
"+++++++++++++++++++++++++++++++++++++O#+++++++++++++++++++++++++",
"++++++++++++++++++++++++++++++++++++++++++++++++++++++++++++++++",
"++++++++++++++++++++++++++++++++++++++++++++++++++++++++++++++++",
"++++++++++++++++++++++++++++++++++++++++++++++++++++++++++++++++",
"+++++++++==+++++++++++++++++++++++++++++++++++++++++++++#==+++++",
"+++#+++##=+++++++++++++++++++++++++++++++++++++++++++++##=++++++",
"++++==+##O+++++++++++++++++++++++++++++++++++++++++++++##O++++++",
"++++=##OO++++++++++++++++++++++++++++++++++++++++++++++OO+++++++",
"++++O##+++++++++++++++++++++++++++++++++++++++++++++++++++++++++",
"+++++O++++++++++++++++++++++++++++++++++++++++++++++++++++++++++",
"++++++++++++++++++++++++++++++++++++++++++++++++++++++++++++++++",
"++++++++++++++++++++++++++++++++++++++++++++++++++++++++++++++++",
"++++++++++++++++++++++++++++++++++++++++++++++++++++++++++++++++",
"++++++++++++++++++++++++++++++++++++++++++++++++++++++++++++++++"
};
