/* XPM */
static char *seq_3[] = {
/* columns rows colors chars-per-pixel */
"64 64 21 1 ",
"  c black",
". c #202021",
"X c #223A30",
"o c #3A3B3D",
"O c #636917",
"+ c #656C17",
"@ c #72751B",
"# c #63492C",
"$ c #787B21",
"% c #3A5941",
"& c #5F6367",
"* c #836B3F",
"= c #A2783C",
"- c #7F8226",
"; c #A2814F",
": c #BD9842",
"> c #C6A740",
", c #869598",
"< c #9CA8AD",
"1 c #B3B0A9",
"2 c #ACC2C3",
/* pixels */
"@@@@@@@@@@@@@@@@@@@@@@@@@@@@@@@@@@@@@@@@@@@@@@@@@@@@@@@@@@@@@@@@",
"@@@@@@@@@@@@@@@@@@@@@@@@@@@@@@@@@@@@@@@@@@@@@@@@@@@@@@@@@@@@@@@@",
"@@@@@@@@@@@@@@@@@@@@@@@@@@@@@@@@@@@@@@@@@@@@@@@@@@@@@@@@@@@@@@@@",
"@@@@@@@@@@@@@@@@@@@@@@@@@@@@@@@@@@@@@@@@@@@@@@@@@@@@@@@@@@@@@@@@",
"@@@@@@@@@@@@@@@@@@@@@@@@@@@@@@@@@@@@@@@@@@@@@@@@@@@@@@@@@@@@@@@@",
"@@@@@@@@@@@@@@@@@@@@@@@@-$$@@@@@@@@@@@@@@@@@@@@@@@@@@@@@@@@@@@@@",
"@@@@@@@@@@@@@@@@@@@@@@@@@$$$@@@@@@@@@@@@@@@@@@@@@@@@@@@@@@@@@@@@",
"@@@@@@@@@@@@@@@@@@@@@@@@@@++@@@@@@@@@@@@@@@@@@@@@@@@@@@@@@@@@@@@",
"@@@@@@@@@@@@@@@@@@@@@@@@@@@@@@@@@@@@@@@@@@@@@@@@@@@@@@@@@@@@@@@@",
"@@@@@@@@@@-@@@@@@@@@@@@@@@@@@@@@@@@@@@@@@@@@@@@@@@@@@@@@@@@@@@@@",
"@@@$--@@@-@@@@@@@@@@@@@@@@@@@@@@@@@@@@@@@@@@@@@@@@@@@@@@@@@@@@@@",
"@@@@-$$@--@@@@@@@@@@@@@@@@@@@@@@@@@@@@@@@@@@@@@@@@@@@@@@@@@@@@@@",
"@@@@+$$@11@@@@@@@@@@@@@@@@@@@@@@@@@@@@@@@@@@@@@@@@@@@@@@@@@@@@@@",
"@@@@@+$1;;1@@@@@@@@@@@@@@@@@@@@@@@@@@@@@@@@@@@@@@@@@@@@@@@@@@@@@",
"@@@@@@+O11O@@@@@@@@@@@@@@@@@@@@@@@@@@@@@@@@@@@@@@@@@@@@@@@@@@@@@",
"@@@@@@@@OO@@@@@@@@@@@@@@@@@@@@@@@@@@@@@@@@@@$$@@@@@@@@@@@@@@@@@@",
"@@@@@@@@@@@@@@@@@@@@@@@@@@@@@@@@@@@@@@@@@@@-$@@@@@@@@@@@@@@@@@@@",
"@@@@@@@@@@@@@@@@@@@@@@@@@@@@@@@@@@@@@@@@@@$$+@@@@@@@@@@@@@@@@@@@",
"@@@@@@@@@@@@@@@@@@@@@@@@@@@@@@@@@@@@@@--$@$$+@@@@@@@@@@@@@@@@@@@",
"@@@@@@@@@@@@@@@@@@@@@@@@@@@@@@@@@@@@@@@-$$+$+@@@@@@@@@@@@@@@@@@@",
"@@@@@@@@@@@@@@@@@@@@11@@@@@@@@@@@@@@@@@+$$++@@@@@@@@@@@@@@@@@@@@",
"@@@@@@@@@@@@@@@@@@@1;;1@11@@@@@@@@@@@@@@++@@@@@@@@@@@@@@@@@-@@@@",
"@@@@@@@@@@@@@@@@@@@O11O1;1@@@@@@@@@@@@@@@@@@@@@@@@@@$--@@@-@@@@@",
"@@@@@@@@@@@@@@@@@@11OO@11O@@@@@@@@@@@@@@@@@@@@@@@@@@@-<<@--@@@@@",
"@@@@@@@@@@@@@@@@@@;1@@@OO@@@@@@@@@@@@@@@@@@@@@@@@@@@@<;;<$$@@@@@",
"@@@@@@@@@@@@@@@@@@OO@@@@@@@@@@@@@@@@@@@@@@@@@@@@@@@@@O<<O11@@@@@",
"@@@@@@@@@@@@@@@@@@@@@@@@@@@@@@@@@@@@@@@@@@@@@@@@@@@@@@OO@;1@@@@@",
"@@@@@@@@@@@@@@@@@@@@@@@@@@@@@@@@@@@@@@@@@@@@@@@@@@@@@@@@@OO@@@@@",
"@@@@@@@@@@@@@@@@@@@@@@@@@@@@@@@@@@@@@@@@@@@@@@@@@@@@@@@@@@@@@@@@",
"@@@@@@@@@@@@@@@@@@@@@@@@@@@@@@@@@@@@@@@@@@@@@@@@@@@@@@@@@@@@@@@@",
"@@@@@@@@@@@@@@@@@@@@@@@@@@@@@@@@@@@@@@@@@@@@@@@@@@@@@@@@@@@@@@@@",
"@@@@@@@@@@@@@@@@@@@@@@@@@@@@@@@@@@@@@@@@@@@@@@@@@@@@@@@@@@@@@@@@",
"@@@@@@@@@@@@@@@@@@@@@@@@@@@@      @@@@@@@@@@@@@@@@@@@@@@@@@@@@@@",
"@@@@@@@@@@@@@@@@@@@@@@@@@@@ ,,,,,, @@@@@@@@@@@@@@@@@@@@@@@@@@@@@",
"@@@@@@@@@@@@@@@@@@@@@@@@@@ ,222222, @@@@@@@@@@@@@@@@@@@@@@@@@@@@",
"@@@@@@@@@@@@@@@@@@@@@@@@@@ ,222222& @@@@@@@@@@@@@@@@@@@@@@@@@@@@",
"@@@@@@@@@@@@@@@@@@@@@@@@@@ &,,,,,&o @@@@@@@@@@@@@@@@@@@@@@@@@@@@",
"@@@@@@@@@@@@@@@@@@@@@@@@@@ &&&&&ooo @@@@@   @@@@@@@@@@@@@@@@@@@@",
"@@@@@@@@@@@@@@@@@@@@@@--@@ &&&&oooo @@@@@ , @@@@@@@@@@@@@@@@@@@@",
"@@@@@@@@@@@@@@@@@@@@@@@-$@ &&&&oooo  @@@ X  @@@@@@@@@@@@@@@@@@@@",
"@@@@@@@@@@@@@@@@@@@@@@@$$$ &&&&oooo , @ X @@@@@@@@@@@@@@@@@@@@@@",
"@@@@@@@@@@@@@@@@@@@@-$$+$$ &&&ooooo  2 X @@@@@@@@@@@@@@@@@@@@@@@",
"@@@@@@@@@@@@@@@@@@@@@$$::+$ &&oooo  2,& @@@@@@@@@@@@@@@@@@@@@@@@",
"@@@@@@@@@@@@@@@@@@@@@+:==: o       2,&,, @@@@@@@@@@@@@@@@@@@@@@@",
"@@@@@@@@@@@@@@@@@@@@@@O:: ,,ooooo 2,&,, , @@@@@@@@@@@@@@@@@@@@@@",
"@@@@@@@@@@@@@@@@@@@@>>@OO X,,,&& 2,&,, @  @@@@@@@@@@@@@@@@@@@@@@",
"@@@@@@@@@@@@@@@@@@@>==>@ XX ,,,  ,&,,  $-+@@@@@@@@@@@@@@@@@@@@@@",
"@@@@@@@@@@@@@@@@@@@O>>O@ X& && ** ,, X $$@@@@@@@@@@@@@@@@@@@@@@@",
"@@@@@@@@@@@@@@@@@@@@OO@@ &o & #***  ,,, +@@@@@@@@@@@@@@@@@@@@@@@",
"@@@@@@@@@@@@@@@@@@@@@@@ ooo   ###*  &&, @@@@@@@@@@@@@@@@@@@@@@@@",
"@@@@@@@@@@@@@@@@@@@@@@@ oo  2, ##   oo& @@@@@@@@@@@@@@@@@@@@@@@@",
"@@@@@@@@@@@@@@@@@@@@@@@ .. 2,&,  & @   @@@@@@@@@@@@@@@@@@@@@@@@@",
"@@@@@@@@@@@@@@@@@@@@@@@ . 2,&,, &o @@@@@@@@@@@@@@@@@@@@@@@@@@@@@",
"@@@@@@@@@@@@@@@@@@@@@@@@ 2,&,, oo  @@@@@@@@@@@@@@@@@@@@@@@@@@@@@",
"@@@@@@@@@--@@@@@@@@@@@@ 2,&,, X  % @@@@@@@@@@@@@@@@@@@@@$--@@@@@",
"@@@$@@@$$-@@@@@@@@@@@@ 2,&,, XXX%% @@@@@@@@@@@@@@@@@@@@$$-@@@@@@",
"@@@@--@$$+@@@@@@@@@@@@ 2,,,    %%o @@@@@@@@@@@@@@@@@@@@$$+@@@@@@",
"@@@@-$$++@@@@@@@@@@@@@ 2,, ...  ooo @@@@@@@@@@@@@@@@@@@++@@@@@@@",
"@@@@+$$@@@@@@@@@@@@@@@     ooo  ... @@@@@@@@@@@@@@@@@@@@@@@@@@@@",
"@@@@@+@@@@@@@@@@@@@@@@@@@@ ,o,  ... @@@@@@@@@@@@@@@@@@@@@@@@@@@@",
"@@@@@@@@@@@@@@@@@@@@@@@@@@@ , @@   @@@@@@@@@@@@@@@@@@@@@@@@@@@@@",
"@@@@@@@@@@@@@@@@@@@@@@@@@@@@ @@@@@@@@@@@@@@@@@@@@@@@@@@@@@@@@@@@",
"@@@@@@@@@@@@@@@@@@@@@@@@@@@@@@@@@@@@@@@@@@@@@@@@@@@@@@@@@@@@@@@@",
"@@@@@@@@@@@@@@@@@@@@@@@@@@@@@@@@@@@@@@@@@@@@@@@@@@@@@@@@@@@@@@@@"
};
