/* XPM */
static char *Player_u[] = {
/* columns rows colors chars-per-pixel */
"64 64 20 1 ",
"  c black",
". c #223A30",
"X c #3A3B3D",
"o c #636917",
"O c #656C17",
"+ c #72751B",
"@ c #63492C",
"# c #787B21",
"$ c #3A5941",
"% c #5F6367",
"& c #836B3F",
"* c #A2783C",
"= c #7F8226",
"- c #A2814F",
"; c #BD9842",
": c #C6A740",
"> c #869598",
", c #9CA8AD",
"< c #B3B0A9",
"1 c #ACC2C3",
/* pixels */
"++++++++++++++++++++++++++++++++++++++++++++++++++++++++++++++++",
"++++++++++++++++++++++++++++++++++++++++++++++++++++++++++++++++",
"++++++++++++++++++++++++++++++++++++++++++++++++++++++++++++++++",
"++++++++++++++++++++++++++++++++++++++++++++++++++++++++++++++++",
"++++++++++++++++++++++++++++++++++++++++++++++++++++++++++++++++",
"++++++++++++++++++++++++=##+++++++++++++++++++++++++++++++++++++",
"+++++++++++++++++++++++++###++++++++++++++++++++++++++++++++++++",
"++++++++++++++++++++++++++OO++++++++++++++++++++++++++++++++++++",
"++++++++++++++++++++++++++++++++++++++++++++++++++++++++++++++++",
"++++++++++=+++++++++++++++++++++++++++++++++++++++++++++++++++++",
"+++#==+++=++++++++++++++++++++++++++++++++++++++++++++++++++++++",
"++++=##+==++++++++++++++++++++++++++++++++++++++++++++++++++++++",
"++++O##+<<++++++++++++++++++++++++++++++++++++++++++++++++++++++",
"+++++O#<--<+++++++++++++++++++++++++++++++++++++++++++++++++++++",
"++++++Oo<<o+++++++++++++++++++++++++++++++++++++++++++++++++++++",
"++++++++oo+++++++++++++++++++      +++++++++##++++++++++++++++++",
"++++++++++++++++++++++++++++ >>>>>> +++++++=#+++++++++++++++++++",
"+++++++++++++++++++++++++++ >111111> +++++##O+++++++++++++++++++",
"+++++++++++++++++++++++++++ >111111% +==#+##O+++++++++++++++++++",
"+++++++++++++++++++++++++++ %>>>>>%X ++=##O#O+++++++++++++++++++",
"++++++++++++++++++++<<+++++ %%%%%XXX ++O##OO++++++++++++++++++++",
"+++++++++++++++++++<--<+<<+ %%%%XXXX +++OO+++++++++++++++++=++++",
"+++++++++++++++++++o<<o<-<+ %%%%XXXX +++   +++++++++#==+++=+++++",
"++++++++++++++++++<<oo+<<o+ %%%%XXXX +++ > ++++++++++=,,+==+++++",
"++++++++++++++++++-<+++oo++ %%%XXX   ++ .  ++++++++++,--,##+++++",
"++++++++++++++++++oo++++++++ %%XXX > + . ++++++++++++o,,o<<+++++",
"+++++++++++++++++++++++++++ %       1 . ++++++++++++++oo+-<+++++",
"++++++++++++++++++++++++++ >>%XXXX 1>% ++++++++++++++++++oo+++++",
"++++++++++++++++++++++++++ >>>%%% 1>%>> ++++++++++++++++++++++++",
"+++++++++++++++++++++++++ $$>>>> 1>%>> > +++++++++++++++++++++++",
"+++++++++++++++++++++++++ $$ >> 1>%>>    +++++++++++++++++++++++",
"+++++++++++++++++++++++++ $1 >  >%>> . +++++++++++++++++++++++++",
"+++++++++++++++++++++++++ 1>  && >> %> +++++++++++++++++++++++++",
"+++++++++++++++++++++++++ >> @&&&   %% +++++++++++++++++++++++++",
"+++++++++++++++++++++++++ >  @@@& % %% +++++++++++++++++++++++++",
"++++++++++++++++++++++++ > 1> @@ %X X%% ++++++++++++++++++++++++",
"++++++++++++++++++++++++  1>%>  XX  XX% ++++++++++++++++++++++++",
"++++++++++++++++++++++++ 1>%>>    . XXX ++++++++++++++++++++++++",
"++++++++++++++++++++++= 1>%>> $$...    +++++++++++++++++++++++++",
"++++++++++++++++++++++ 1>%>> $$.... ++++++++++++++++++++++++++++",
"+++++++++++++++++++++ 1>%>>  $.  .. ++++++++++++++++++++++++++++",
"++++++++++++++++++++= 1>>>  $$    .. +++++++++++++++++++++++++++",
"+++++++++++++++++++++ 1>> # $% ++ %. +++++++++++++++++++++++++++",
"+++++++++++++++++++++    ;# %% ++ %% +++++++++++++++++++++++++++",
"++++++++++++++++++++++o;;o %%X ++ X%% ++++++++++++++++++++++++++",
"++++++++++++++++++++::+oo+ XXX ++ XXX ++=#++++++++++++++++++++++",
"+++++++++++++++++++:**:+++     ++     +#=O++++++++++++++++++++++",
"+++++++++++++++++++o::o++++++++++++O##+##+++++++++++++++++++++++",
"++++++++++++++++++++oo++++++++++++++O###O+++++++++++++++++++++++",
"++++++++++++++++++++++++++++++++++++O##O++++++++++++++++++++++++",
"+++++++++++++++++++++++++++++++++++++O#+++++++++++++++++++++++++",
"++++++++++++++++++++++++++++++++++++++++++++++++++++++++++++++++",
"++++++++++++++++++++++++++++++++++++++++++++++++++++++++++++++++",
"++++++++++++++++++++++++++++++++++++++++++++++++++++++++++++++++",
"+++++++++==+++++++++++++++++++++++++++++++++++++++++++++#==+++++",
"+++#+++##=+++++++++++++++++++++++++++++++++++++++++++++##=++++++",
"++++==+##O+++++++++++++++++++++++++++++++++++++++++++++##O++++++",
"++++=##OO++++++++++++++++++++++++++++++++++++++++++++++OO+++++++",
"++++O##+++++++++++++++++++++++++++++++++++++++++++++++++++++++++",
"+++++O++++++++++++++++++++++++++++++++++++++++++++++++++++++++++",
"++++++++++++++++++++++++++++++++++++++++++++++++++++++++++++++++",
"++++++++++++++++++++++++++++++++++++++++++++++++++++++++++++++++",
"++++++++++++++++++++++++++++++++++++++++++++++++++++++++++++++++",
"++++++++++++++++++++++++++++++++++++++++++++++++++++++++++++++++"
};
