/* XPM */
static char *seq_5[] = {
/* columns rows colors chars-per-pixel */
"64 64 19 1 ",
"  c black",
". c #223A30",
"X c #3A3B3D",
"o c #636917",
"O c #656C17",
"+ c #72751B",
"@ c #787B21",
"# c #3A5941",
"$ c #496B51",
"% c #5F6367",
"& c #A2783C",
"* c #7F8226",
"= c #A2814F",
"- c #BD9842",
"; c #C6A740",
": c #869598",
"> c #9CA8AD",
", c #B3B0A9",
"< c #ACC2C3",
/* pixels */
"++++++++++++++++++++++++++++++++++++++++++++++++++++++++++++++++",
"++++++++++++++++++++++++++++++++++++++++++++++++++++++++++++++++",
"++++++++++++++++++++++++++++++++++++++++++++++++++++++++++++++++",
"++++++++++++++++++++++++++++++++++++++++++++++++++++++++++++++++",
"++++++++++++++++++++++++++++++++++++++++++++++++++++++++++++++++",
"++++++++++++++++++++++++*@@+++++++++++++++++++++++++++++++++++++",
"+++++++++++++++++++++++++@@@++++++++++++++++++++++++++++++++++++",
"++++++++++++++++++++++++++OO++++++++++++++++++++++++++++++++++++",
"++++++++++++++++++++++++++++++++++++++++++++++++++++++++++++++++",
"++++++++++*+++++++++++++++++++++++++++++++++++++++++++++++++++++",
"+++@**+++*++++++++++++++++++++++++++++++++++++++++++++++++++++++",
"++++*@@+**++++++++++++++++++++++++++++++++++++++++++++++++++++++",
"++++O@@+,,++++++++++++++++++++++++++++++++++++++++++++++++++++++",
"+++++O@,==,+++++++++++++++++++++++++++++++++++++++++++++++++++++",
"++++++Oo,,o+++++++++++++++++++++++++++++++++++++++++++++++++++++",
"++++++++oo++++++++++++++++++++++++++++++++++@@++++++++++++++++++",
"+++++++++++++++++++++++++++++++++++++++++++*@+++++++++++++++++++",
"++++++++++++++++++++++++++++++++++++++++++@@O      +++++++++++++",
"++++++++++++++++++++++++++++++++++++++**@+@@ :::::: ++++++++++++",
"+++++++++++++++++++++++++++++++++++++++*@@O :<<<<<<% +++++++++++",
"++++++++++++++++++++,,+++++++++++++++++O@@O :<<<<<<% +++++++++++",
"+++++++++++++++++++,==,+,,++++++++++++++OO+ :<<<<<%% ++++++*++++",
"+++++++++++++++++++o,,o,=,+++++++++++++++++ %:::%%XX **+++*+++++",
"++++++++++++++++++,,oo+,,o++++++++++++   ++ %%%%  XX *>>+**+++++",
"++++++++++++++++++=,+++oo+++++++++++++ : ++       XX >==>@@+++++",
"++++++++++++++++++oo++++++++++++++++++  . +      %XX o>>o,,+++++",
"++++++++++++++++++++++++++++++++++++++++ .  %%%%%%%X +oo+=,+++++",
"+++++++++++++++++++++++++++++++++++++++++ . ::::::X +++++oo+++++",
"++++++++++++++++++++++++++++++++++++++++++ % %%XXX +++++++++++++",
"+++++++++++++++++++++++++++++++++++++++++ ::      % ++++++++++++",
"++++++++++++++++++++++++++++++++++++++++ :  :%%%%%%% +++++++++++",
"++++++++++++++++++++++++++++++++++++++++  + ::::%%%.. ++++++++++",
"+++++++++++++++++++++++++++++++++++++++++++  :##% .... +++++++++",
"++++++++++++++++++++++++++++++++++++++++++ . :##.  ... +++++++++",
"++++++++++++++++++++++++++++++++++++++++++ . :#..X  .<: ++++++++",
"++++++++++++++++++++++++++++++++++++++++  :.. ...X   :: ++++++++",
"+++++++++++++++++++++++++++++++++++++++ ::X:  %.%X <  :: +++++++",
"+++++++++++++++++++++++++++++++++++++++ XXX + %%%% :< :X +++++++",
"++++++++++++++++++++++**++++++++++++++++   ++ %    %: XX +++++++",
"+++++++++++++++++++++++*@++++*++++++++++++++   $$$# %:  ++++++++",
"+++++++++++++++++++++++@@@+@*++++++++++++++ $$$$$## ::< ++++++++",
"++++++++++++++++++++*@@O@@@@O+++++++++++++ XX$$##  . :< ++++++++",
"+++++++++++++++++++++@@--O@@O+++++++++++++ %%    ...    ++++++++",
"+++++++++++++++++++++O-&&-@O+++++++++++++ %%X +++ .<% ++++++++++",
"++++++++++++++++++++++o--o+;;++++++++++++ XXX ++++ %% ++++++++++",
"++++++++++++++++++++;;+oo++&;+++++++++++*    ++++++ %X +++++++++",
"+++++++++++++++++++;&&;++++oo++++++*@++@*O+++++++++ XX +++++++++",
"+++++++++++++++++++o;;o++++++++++++O@@+@@+++++++++++   +++++++++",
"++++++++++++++++++++oo++++++++++++++O@@@O+++++++++++++++++++++++",
"++++++++++++++++++++++++++++++++++++O@@O++++++++++++++++++++++++",
"+++++++++++++++++++++++++++++++++++++O@+++++++++++++++++++++++++",
"++++++++++++++++++++++++++++++++++++++++++++++++++++++++++++++++",
"++++++++++++++++++++++++++++++++++++++++++++++++++++++++++++++++",
"++++++++++++++++++++++++++++++++++++++++++++++++++++++++++++++++",
"+++++++++**+++++++++++++++++++++++++++++++++++++++++++++@**+++++",
"+++@+++@@*+++++++++++++++++++++++++++++++++++++++++++++@@*++++++",
"++++**+@@O+++++++++++++++++++++++++++++++++++++++++++++@@O++++++",
"++++*@@OO++++++++++++++++++++++++++++++++++++++++++++++OO+++++++",
"++++O@@+++++++++++++++++++++++++++++++++++++++++++++++++++++++++",
"+++++O++++++++++++++++++++++++++++++++++++++++++++++++++++++++++",
"++++++++++++++++++++++++++++++++++++++++++++++++++++++++++++++++",
"++++++++++++++++++++++++++++++++++++++++++++++++++++++++++++++++",
"++++++++++++++++++++++++++++++++++++++++++++++++++++++++++++++++",
"++++++++++++++++++++++++++++++++++++++++++++++++++++++++++++++++"
};
