/* XPM */
static char *seq_1[] = {
/* columns rows colors chars-per-pixel */
"64 64 19 1 ",
"  c black",
". c #202021",
"X c #223A30",
"o c #3A3B3D",
"O c #636917",
"+ c #656C17",
"@ c #72751B",
"# c #787B21",
"$ c #3A5941",
"% c #5F6367",
"& c #A2783C",
"* c #7F8226",
"= c #A2814F",
"- c #BD9842",
"; c #C6A740",
": c #869598",
"> c #9CA8AD",
", c #B3B0A9",
"< c #ACC2C3",
/* pixels */
"@@@@@@@@@@@@@@@@@@@@@@@@@@@@@@@@@@@@@@@@@@@@@@@@@@@@@@@@@@@@@@@@",
"@@@@@@@@@@@@@@@@@@@@@@@@@@@@@@@@@@@@@@@@@@@@@@@@@@@@@@@@@@@@@@@@",
"@@@@@@@@@@@@@@@@@@@@@@@@@@@@@@@@@@@@@@@@@@@@@@@@@@@@@@@@@@@@@@@@",
"@@@@@@@@@@@@@@@@@@@@@@@@@@@@@@@@@@@@@@@@@@@@@@@@@@@@@@@@@@@@@@@@",
"@@@@@@@@@@@@@@@@@@@@@@@@@@@@@@@@@@@@@@@@@@@@@@@@@@@@@@@@@@@@@@@@",
"@@@@@@@@@@@@@@@@@@@@@@@@*##@@@@@@@@@@@@@@@@@@@@@@@@@@@@@@@@@@@@@",
"@@@@@@@@@@@@@@@@@@@@@@@@@###@@@@@@@@@@@@@@@@@@@@@@@@@@@@@@@@@@@@",
"@@@@@@@@@@@@@@@@@@@@@@@@@@++@@@@@@@@@@@@@@@@@@@@@@@@@@@@@@@@@@@@",
"@@@@@@@@@@@@@@@@@@@@@@@@@@@@@@@@@@@@@@@@@@@@@@@@@@@@@@@@@@@@@@@@",
"@@@@@@@@@@*@@@@@@@@@@@@@@@@@@@@@@@@@@@@@@@@@@@@@@@@@@@@@@@@@@@@@",
"@@@#**@@@*@@@@@@@@@@@@@@@@@@@@@@@@@@@@@@@@@@@@@@@@@@@@@@@@@@@@@@",
"@@@@*##@**@@@@@@@@@@@@@@@@@@@@@@@@@@@@@@@@@@@@@@@@@@@@@@@@@@@@@@",
"@@@@+##@,,@@@@@@@@@@@@@@@@@@@@@@@@@@@@@@@@@@@@@@@@@@@@@@@@@@@@@@",
"@@@@@+#,==,@@@@@@@@@@@@@@@@@@@@@@@@@@@@@@@@@@@@@@@@@@@@@@@@@@@@@",
"@@@@@@+O,,O@@@@@@@@@@@@@@@@@@@@@@@@@@@@@@@@@@@@@@@@@@@@@@@@@@@@@",
"@@@@@@@@OO@@@@@@@@@@@@@@@@@@@@@@@@@@@@@@@@@@##@@@@@@@@@@@@@@@@@@",
"@@@@@@@@@@@@@@@@@@@@@@@@@@@@@@@@@@@@@@@@@@@*#@@@@@@@@@@@@@@@@@@@",
"@@@@@@@@@@@@@@@@@@@@@@@@@@@@@@@@@@@@@@@@@@##+@@@@@@@@@@@@@@@@@@@",
"@@@@@@@@@@@@@@@@@@@@@@@@@@@@@@@@@@@@@@**#@##+@@@@@@@@@@@@@@@@@@@",
"@@@@@@@@@@@@@@@@@@@@@@@@@@@@@@@@@@@@@@@*##+#+@@@@@@@@@@@@@@@@@@@",
"@@@@@@@@@@@@@@@@@@@@,,@@@@@@@@@@@@@@@@@+##++@@@@@@@@@@@@@@@@@@@@",
"@@@@@@@@@@@@@@@@@@@,==,@,,@@@@@@@@@@@@@@++@@@@@@@@@@@@@@@@@*@@@@",
"@@@@@@@@@@@@@@@@@@@O,,O,=,@@@@@@@@@@@@@@@@@@@@@@@@@@#**@@@*@@@@@",
"@@@@@@@@@@@@@@@@@@,,OO@,,O@@@@@@@@@@@@@@@@@@@@@@@@@@@*>>@**@@@@@",
"@@@@@@@@@@@@@@@@@@=,@@@OO@@@@@@@@@@@@@@@@@@@@@@@@@@@@>==>##@@@@@",
"@@@@@@@@@@@@@@@@@@OO@@@@@@@@@      @@@@@@@@@@@@@@@@@@O>>O,,@@@@@",
"@@@@@@@@@@@@@@@@@@@@@@@@@@@@ :::::: @@@@@@@@@@@@@@@@@@OO@=,@@@@@",
"@@@@@@@@@@@@@@@@@@@@@@@@@@@ :<<<<<<: @@@@@@@@@@@@@@@@@@@@OO@@@@@",
"@@@@@@@@@@@@@@@@@@@@@@@@@@@ :<<<<<<% @@@@@@@@@@@@@@@@@@@@@@@@@@@",
"@@@@@@@@@@@@@@@@@@@@@   @@@ %:<<<:%o @@@@@@@@@@@@@@@@@@@@@@@@@@@",
"@@@@@@@@@@@@@@@@@@@@@ : @@@ %%::%%oo @@@@@@@@@@@@@@@@@@@@@@@@@@@",
"@@@@@@@@@@@@@@@@@@@@@  X @@ % %%oo o @@@@@@@@@@@@@@@@@@@@@@@@@@@",
"@@@@@@@@@@@@@@@@@@@@@@@ X @ %      o @@@@@@@@@@@@@@@@@@@@@@@@@@@",
"@@@@@@@@@@@@@@@@@@@@@@@@ X  %%    oo @@@@@@@@@@@@@@@@@@@@@@@@@@@",
"@@@@@@@@@@@@@@@@@@@@@@@@@ % %:%%oo%o @@@@@@@@@@@@@@@@@@@@@@@@@@@",
"@@@@@@@@@@@@@@@@@@@@@@@@ ::  %::%%o @@@@@@@@@@@@@@@@@@@@@@@@@@@@",
"@@@@@@@@@@@@@@@@@@@@@@@ :  :% %ooo o @@@@@@@@@@@@@@@@@@@@@@@@@@@",
"@@@@@@@@@@@@@@@@@@@@@@@  @ ::%    o%% @@@@@@@@@@@@@@@@@@@@@@@@@@",
"@@@@@@@@@@@@@@@@@@@@@@**@ $:::%%%%%%o @@@@@@@@@@@@@@@@@@@@@@@@@@",
"@@@@@@@@@@@@@@@@@@@@@@@*# $$::::::%oX @@@@@@@@@@@@@@@@@@@@@@@@@@",
"@@@@@@@@@@@@@@@@@@@@@@@# oo$ :$$%%% XX @@@@@@@@@@@@@@@@@@@@@@@@@",
"@@@@@@@@@@@@@@@@@@@@*## :::  $$$$%% %X @@@@@@@@@@@@@@@@@@@@@@@@@",
"@@@@@@@@@@@@@@@@@@@@@## :%%  $$XX%o o% @@@@@@@@@@@@@@@@@@@@@@@@@",
"@@@@@@@@@@@@@@@@@@@@@+- %oo  XXXX%o  .. @@@@@@@@@@@@@@@@@@@@@@@@",
"@@@@@@@@@@@@@@@@@@@@@@O-   ; oXX%%o  .. @@@@@@@@@@@@@@@@@@@@@@@@",
"@@@@@@@@@@@@@@@@@@@@;;@OO@@& oXX%oo  ..  #@@@@@@@@@@@@@@@@@@@@@@",
"@@@@@@@@@@@@@@@@@@@;&&;@@@@O o%%o   :  :< @@@@@@@@@@@@@@@@@@@@@@",
"@@@@@@@@@@@@@@@@@@@O;;O@@@@@  oo XX  ::%:< @@@@@@@@@@@@@@@@@@@@@",
"@@@@@@@@@@@@@@@@@@@@OO@@@@@@ $  XXX + :::< @@@@@@@@@@@@@@@@@@@@@",
"@@@@@@@@@@@@@@@@@@@@@@@@@@@@ $$XXX  +# ::< @@@@@@@@@@@@@@@@@@@@@",
"@@@@@@@@@@@@@@@@@@@@@@@@@@@@ o$$  : @+#    @@@@@@@@@@@@@@@@@@@@@",
"@@@@@@@@@@@@@@@@@@@@@@@@@@@ ooo  :o: @@@@@@@@@@@@@@@@@@@@@@@@@@@",
"@@@@@@@@@@@@@@@@@@@@@@@@@@@ ...  ooo @@@@@@@@@@@@@@@@@@@@@@@@@@@",
"@@@@@@@@@@@@@@@@@@@@@@@@@@@ ...  ... @@@@@@@@@@@@@@@@@@@@@@@@@@@",
"@@@@@@@@@**@@@@@@@@@@@@@@@@@   @@   @@@@@@@@@@@@@@@@@@@@#**@@@@@",
"@@@#@@@##*@@@@@@@@@@@@@@@@@@@@@@@@@@@@@@@@@@@@@@@@@@@@@##*@@@@@@",
"@@@@**@##+@@@@@@@@@@@@@@@@@@@@@@@@@@@@@@@@@@@@@@@@@@@@@##+@@@@@@",
"@@@@*##++@@@@@@@@@@@@@@@@@@@@@@@@@@@@@@@@@@@@@@@@@@@@@@++@@@@@@@",
"@@@@+##@@@@@@@@@@@@@@@@@@@@@@@@@@@@@@@@@@@@@@@@@@@@@@@@@@@@@@@@@",
"@@@@@+@@@@@@@@@@@@@@@@@@@@@@@@@@@@@@@@@@@@@@@@@@@@@@@@@@@@@@@@@@",
"@@@@@@@@@@@@@@@@@@@@@@@@@@@@@@@@@@@@@@@@@@@@@@@@@@@@@@@@@@@@@@@@",
"@@@@@@@@@@@@@@@@@@@@@@@@@@@@@@@@@@@@@@@@@@@@@@@@@@@@@@@@@@@@@@@@",
"@@@@@@@@@@@@@@@@@@@@@@@@@@@@@@@@@@@@@@@@@@@@@@@@@@@@@@@@@@@@@@@@",
"@@@@@@@@@@@@@@@@@@@@@@@@@@@@@@@@@@@@@@@@@@@@@@@@@@@@@@@@@@@@@@@@"
};
